<svg xmlns="http://www.w3.org/2000/svg" viewBox="0 0 50 50"><defs><style>.cls-1{fill:#00005b;}.cls-2{fill:#99f;}</style></defs><g id="Layer_3" data-name="Layer 3"><g id="Layer_2" data-name="Layer 2"><g id="Surfaces"><g id="Video_Audio_Surface" data-name="Video Audio Surface"><g id="Outline_no_shadow" data-name="Outline no shadow"><rect class="cls-1" y="0.78" width="50" height="48.75" rx="8.85"/></g></g></g><g id="Outlined_Mnemonics_Logos" data-name="Outlined Mnemonics Logos"><g id="Ae"><path class="cls-2" d="M20.09,30H12.34l-1.58,4.91a.39.39,0,0,1-.4.3H6.43c-.22,0-.3-.12-.23-.37l6.71-19.24c.07-.2.13-.4.2-.66a6.79,6.79,0,0,0,.13-1.35.22.22,0,0,1,.18-.24h5.39c.16,0,.25.06.27.17l7.61,21.35c.07.23,0,.34-.2.34H22.13a.3.3,0,0,1-.33-.24Zm-6.54-4.14h5.3c-.14-.44-.3-.95-.47-1.51s-.37-1.15-.57-1.79-.41-1.28-.61-1.91-.38-1.25-.55-1.85-.32-1.13-.45-1.62h0c-.19.9-.42,1.8-.7,2.68s-.63,2-1,3.08S13.86,24.92,13.55,25.81Z"/><path class="cls-2" d="M39,28H32.43a4.75,4.75,0,0,0,.64,1.85,3.47,3.47,0,0,0,1.52,1.26,6.42,6.42,0,0,0,2.67.52,12,12,0,0,0,2.16-.24A7.83,7.83,0,0,0,41.28,31c.12-.09.17,0,.17.16V34.3a.43.43,0,0,1-.05.25.54.54,0,0,1-.15.15,7.92,7.92,0,0,1-2.08.62,14.58,14.58,0,0,1-3,.25,9.58,9.58,0,0,1-4-.73,7.2,7.2,0,0,1-2.62-2,7.76,7.76,0,0,1-1.44-2.74,10.68,10.68,0,0,1-.44-3,11,11,0,0,1,.52-3.31,8.91,8.91,0,0,1,1.56-2.85,7.59,7.59,0,0,1,2.52-2,7.89,7.89,0,0,1,3.49-.65,7.46,7.46,0,0,1,3.23.64,5.54,5.54,0,0,1,2.2,1.66A7.63,7.63,0,0,1,42.49,23a8.55,8.55,0,0,1,.41,2.55c0,.49,0,.94-.06,1.34s-.06.7-.08.88a.3.3,0,0,1-.3.26c-.14,0-.36,0-.69.05s-.73.06-1.21.07S39.57,28,39,28ZM32.43,25H38a1.18,1.18,0,0,0,.49-.16v-.2a2.89,2.89,0,0,0-.13-.78,2.77,2.77,0,0,0-2.72-1.91,2.92,2.92,0,0,0-2.77,1.58A4.87,4.87,0,0,0,32.43,25Z"/></g></g></g></g></svg>