<svg xmlns="http://www.w3.org/2000/svg" xmlns:xlink="http://www.w3.org/1999/xlink" viewBox="0 0 50 50"><defs><style>.cls-1{fill:#1f62ae;}.cls-2{fill:#3c9bd5;}.cls-10,.cls-3{fill:#231f20;}.cls-4{fill:#fff;}.cls-5{fill:url(#linear-gradient);}.cls-6{fill:url(#linear-gradient-2);}.cls-7{fill:url(#linear-gradient-3);}.cls-10,.cls-8{opacity:0.05;}.cls-9{fill:url(#linear-gradient-4);}</style><linearGradient id="linear-gradient" x1="20.1" y1="30.44" x2="20.1" y2="22.04" gradientUnits="userSpaceOnUse"><stop offset="0.39" stop-color="#d0d2d3" stop-opacity="0"/><stop offset="1" stop-color="#d0d2d3"/></linearGradient><linearGradient id="linear-gradient-2" x1="30.59" y1="26.25" x2="30.59" y2="17.52" xlink:href="#linear-gradient"/><linearGradient id="linear-gradient-3" x1="15.04" y1="34.18" x2="35.22" y2="34.18" gradientUnits="userSpaceOnUse"><stop offset="0" stop-color="#e7e6e5"/><stop offset="1" stop-color="#fff"/></linearGradient><linearGradient id="linear-gradient-4" x1="14.12" y1="19.65" x2="36.02" y2="19.65" xlink:href="#linear-gradient-3"/></defs><g id="Layer_3" data-name="Layer 3"><polygon class="cls-1" points="39.34 45.72 25.18 49.53 11.02 45.72 7.75 10.32 42.61 10.32 39.34 45.72"/><polygon class="cls-2" points="25.18 13.19 25.18 46.49 25.21 46.5 36.67 43.41 39.31 13.19 25.18 13.19"/><polygon class="cls-3" points="17.14 5.12 17.14 3.01 20.21 3.01 20.21 0.7 14.84 0.7 14.84 7.22 20.21 7.22 20.21 5.12 17.14 5.12"/><path class="cls-3" d="M25.75,3h2.14V.7H22.51V3c.72.72,1.1,1.06,2.14,2.1H22.51v2.1h5.38V5.12Z"/><path class="cls-3" d="M33.37,3h2.15V.7H30.14V3c.72.72,1.1,1.06,2.14,2.1H30.14v2.1h5.38V5.12Z"/><polygon class="cls-4" points="25.16 22.04 15.03 26.26 15.37 30.44 25.16 26.25 35.59 21.79 36.02 17.52 25.16 22.04"/><polygon class="cls-5" points="15.03 26.26 15.37 30.44 25.16 26.25 25.16 22.04 15.03 26.26"/><polygon class="cls-6" points="36.02 17.52 25.16 22.04 25.16 26.25 35.59 21.79 36.02 17.52"/><polygon class="cls-7" points="15.04 26.26 15.38 30.44 30.42 30.49 30.08 36.06 25.13 37.45 20.38 36.25 20.09 32.79 15.67 32.79 16.25 39.47 25.18 42.11 34.07 39.52 35.22 26.26 15.04 26.26"/><g class="cls-8"><polygon class="cls-3" points="25.16 26.26 15.03 26.26 15.37 30.44 25.16 30.47 25.16 26.26"/><polygon class="cls-3" points="25.16 37.44 25.12 37.45 20.36 36.25 20.07 32.79 15.65 32.79 16.23 39.47 25.16 42.11 25.16 37.44"/></g><polygon class="cls-9" points="14.12 17.52 36.02 17.52 35.59 21.79 14.64 21.79 14.12 17.52"/><polygon class="cls-10" points="25.16 17.52 14.12 17.52 14.64 21.79 25.16 21.79 25.16 17.52"/></g></svg>