<svg xmlns="http://www.w3.org/2000/svg" viewBox="0 0 50 50"><defs><style>.cls-1{fill:#2d2f37;}.cls-2{fill:#f6f6f6;}.cls-3{fill:#2c2d35;}.cls-4{fill:#30333c;}.cls-5{fill:#2e3039;}.cls-6{fill:#2f3139;}.cls-7{fill:#0ace82;}.cls-8{fill:#f14e1e;}.cls-9{fill:#fe7262;}.cls-10{fill:#a159fe;}.cls-11{fill:#1abbfd;}.cls-12{fill:#2e3139;}.cls-13{fill:#2e3038;}.cls-14{fill:#237aa1;}</style></defs><g id="Layer_3" data-name="Layer 3"><rect class="cls-1" x="0.7" y="0.62" width="48.75" height="48.75" rx="10.16"/><path class="cls-2" d="M14.92.54h-.48A.57.57,0,0,1,14.92.54Z"/><path class="cls-2" d="M11.65.54h-.43A.47.47,0,0,1,11.65.54Z"/><path class="cls-2" d="M16.42.54h-.21Q16.32.38,16.42.54Z"/><path class="cls-2" d="M15.36.54H15.1A.21.21,0,0,1,15.36.54Z"/><path class="cls-2" d="M19.86.54h-.21C19.72.48,19.79.42,19.86.54Z"/><path class="cls-3" d="M49.44,34a.91.91,0,0,1,0,.33c-.08,0,0,.11,0,.17,0,.59,0,1.18,0,1.77v3.13a9.88,9.88,0,0,1-2.29,6.33A10,10,0,0,1,41,49.38a7.93,7.93,0,0,1-1.46.13q-14.47,0-28.95,0a9.75,9.75,0,0,1-6.73-2.75,9.48,9.48,0,0,1-1.27-1.42c0-.06-.07-.14-.16-.14A9.78,9.78,0,0,1,.65,41a8.83,8.83,0,0,1-.11-1.62V35.72a1.59,1.59,0,0,1,0-.38,1.56,1.56,0,0,1,.75-.59,1.23,1.23,0,0,0-.32.17.18.18,0,0,1-.21,0,.2.2,0,0,1,0-.21,1.37,1.37,0,0,1,.83-.56c.13,0,.19.06.14.19s-.1.1-.06.18.14-.07.19-.13.38-.26.57-.38a.13.13,0,0,1,.18,0,.1.1,0,0,1,0,.15c-.22.16-.28.5-.64.57.11,0,.15,0,.2-.07a.84.84,0,0,1,1.09.08s.09.09.14.06,0-.12,0-.16a.15.15,0,0,1,0-.24c.09-.07.19-.15.3-.07s.29.14.34.31.14.13.24.07.27-.17.43-.28c-.08,0-.12.08-.18.08s-.18,0-.21-.09a.16.16,0,0,1,.07-.19,3.37,3.37,0,0,1,.43-.34c.17-.12.28.07.4.16a.22.22,0,0,1,0,.32s-.07.06-.09.1a.12.12,0,0,0,.07.18c.07.05.12,0,.14-.07a.39.39,0,0,1,.38-.34c.06,0,.13,0,.16,0,.18.28.36.07.54,0s.15-.09.24-.13.17-.07.22,0a.38.38,0,0,0,.28.21c.18.05,0,.19,0,.32a.18.18,0,0,0,.08-.26A.44.44,0,0,1,7.54,34a.15.15,0,0,1,.16,0,.12.12,0,0,1,0,.17c-.11.16,0,.18.12.24a.61.61,0,0,0,.67,0c.18-.12.3,0,.31.22a.21.21,0,0,1,.32-.1c.11.05.16.21.34.15-.13,0-.23,0-.26-.16s.06-.19.15-.24A1.09,1.09,0,0,0,9.64,34s.09-.11.16-.07a.14.14,0,0,1,.06.17c0,.2.06.27.24.29l.3,0c.45,0,.55.1.44.54a.6.6,0,0,1,.27-.37c.12-.08.24-.19.16-.37s-.08-.24.08-.29a.29.29,0,0,1,.36.13.86.86,0,0,1,.07.36c0,.07,0,.18.09.2s.11-.08.14-.14a.8.8,0,0,1,.27-.28.31.31,0,0,1,.48,0,.37.37,0,0,0,.5.15s0,0,0,0h0a.21.21,0,0,1-.2-.23c0-.17.11-.33.14-.5a.17.17,0,0,1,.19-.09c.08,0,.16.08.14.15s.06.35.11.52c-.09.43-.31.81-.39,1.24a5.91,5.91,0,0,0,1.55,5.45,5.88,5.88,0,0,0,8.19.29,5.77,5.77,0,0,0,1.95-3.92c.06-.65,0-1.31,0-2A.81.81,0,0,1,25,35a1.09,1.09,0,0,0,.52-.38c.12-.18.38-.18.57-.27s.16.06.11.17a.31.31,0,0,1-.09.11c-.17.15-.13.26.07.34s0,.3.21.06c-.05-.09-.16,0-.21-.06s-.07-.22,0-.28a.66.66,0,0,0,.42-.65.11.11,0,0,1,.09-.12.13.13,0,0,1,.14.06,2.81,2.81,0,0,1,.17.35c.07.2-.08.25-.24.28.19.07.42-.17.56.13.11-.32.34-.3.56-.27a.39.39,0,0,0,.45-.17c.05-.09.1-.19.23-.16s.08.1.09.16a.25.25,0,0,1-.14.28,1.61,1.61,0,0,0-.47.29c.2-.09.36-.25.56-.35a.34.34,0,0,1,.27-.07c.1,0,.11.12.11.21a.22.22,0,0,1-.19.21.33.33,0,0,0-.16.07c.15,0,.28-.17.44,0s.07.16,0,.28a1,1,0,0,1,.47-.32.32.32,0,0,0,.19-.15c0-.06.08-.12.15-.11a.41.41,0,0,0,.36-.21.3.3,0,0,1,.35-.15.09.09,0,0,1,.09.12.35.35,0,0,1-.21.35.46.46,0,0,0-.22.11.15.15,0,0,0,.16,0,.88.88,0,0,1,1.2,0s.08.06.13,0,0-.1,0-.15a.21.21,0,0,1,.08-.29c.05,0,.13-.08.18,0s.29.15.35.29.18.15.32.08.26-.16.41-.05a1.62,1.62,0,0,1,0-.62c0-.14.14-.23.29-.11l.24.19c.08.08.11.2,0,.26s-.11.22,0,.33a.54.54,0,0,1,.13.24c0-.28,0-.5.22-.63s.3-.14.41,0,.1.11.2.06l.44-.22c.09-.05.2-.11.27,0s0,.15-.12.21a.09.09,0,0,0,0,.07c.15-.12.43-.17.47-.07s-.08.28-.19.38a.33.33,0,0,1-.1.06l.27-.13c.1-.06.17-.14.11-.25s.06-.32.17-.46a.13.13,0,0,1,.19,0,.11.11,0,0,1,0,.17c-.11.19,0,.23.16.28a.68.68,0,0,0,.63-.07c.2-.15.28-.09.32.22.26-.4.48.15.76,0-.15,0-.29,0-.34-.14s.07-.2.17-.25a1.27,1.27,0,0,0,.25-.21c.09-.09.18,0,.18,0s.1.33.29.4c0,0,0,0,0,.09s-.17.15-.22.26a.72.72,0,0,0,.23-.26c.16-.15.36-.09.55-.07s.15.12.15.23,0,.19,0,.31a.55.55,0,0,1,.25-.41c.13-.11.33-.22.13-.45a.11.11,0,0,1,.09-.18c.14,0,.29-.06.36.11a.88.88,0,0,1,.06.27.78.78,0,0,0,.15.5,1,1,0,0,1,.33-.6.39.39,0,0,1,.58.08.35.35,0,0,0,.39.12c.33-.05.34-.05.41.26,0,.09.08.09.15.08s.24-.16.2-.39,0-.36.23-.45a.32.32,0,0,1,.46.17s0,.06.06.1.12.14,0,.22-.14,0-.2,0-.09-.1-.2-.08c.17.21.44.35.42.59,0-.15.15-.3.19-.5s0-.12.07-.14a.18.18,0,0,1,.17.07.37.37,0,0,1,.08.18c0,.15.07.17.26.12a2.54,2.54,0,0,1,.82-.16c.17,0,.21.19.31.32.05-.08,0-.19.09-.24a.43.43,0,0,1,.25,0c.14,0,.26,0,.3-.22s.17-.18.32-.1.29.26.47,0c.07-.09.17,0,.21.09a1.27,1.27,0,0,1,.05.45,1.22,1.22,0,0,0,.38-.37c.05-.08.16-.18.22-.08s.33.12.47.22.31-.05.31-.2a.15.15,0,0,1,.1-.18.15.15,0,0,1,.21.08c.08.15.23.23.35.35a.19.19,0,0,0,.22.07c.1,0,.1-.12.08-.2a.88.88,0,0,1,0-.33C49.2,34,49.29,33.91,49.44,34Z"/><path class="cls-4" d="M1.34,6.85A3.42,3.42,0,0,0,1.81,6a10.21,10.21,0,0,1,7-5.15,7.63,7.63,0,0,1,1.72-.2q14.52,0,29,0A9.67,9.67,0,0,1,46.22,3.4a10,10,0,0,1,3,5.11,4.39,4.39,0,0,1,.18,1.25c-.15.1-.23.05-.26-.07.05.15,0,.26-.22.31s-.21,0-.23-.18c-.05,0-.06.06-.07.1s-.05.26-.22.21a.23.23,0,0,1-.14-.34c.1-.21,0-.34-.14-.5,0,.08.07.1.09.14s0,.23-.11.21-.33,0-.31.24a.14.14,0,0,1-.24.1c-.14-.17-.36-.27-.48-.46,0,0,0,.11-.08.16a.33.33,0,0,0,0,.22.13.13,0,0,1-.08.13s-.09,0-.12,0a1.81,1.81,0,0,0-.21-.18c-.18-.16-.16-.29.07-.39,0,0-.08,0-.13,0s-.3-.05-.4,0,0,.25,0,.38-.08.28-.23.32-.21-.11-.26-.21a.36.36,0,0,0-.44-.25,3.25,3.25,0,0,1-.59-.09c-.18,0-.49.25-.48.43s0,.23-.18.25-.19-.08-.2-.2a.25.25,0,0,0-.06-.15c-.19-.24-.15-.46.09-.72-.11.09-.14.18-.22.21A1,1,0,0,0,43,10c0,.07-.06.17-.17.16s-.09-.11-.1-.18a1.21,1.21,0,0,1-.09-.48c-.13,0-.2.14-.31.12,0,.15.13.18.19.26a.17.17,0,0,1,0,.18.1.1,0,0,1-.14,0,.7.7,0,0,0-.14,0c-.34,0-.34,0-.32-.35a2,2,0,0,0-.32-.59c-.19-.07-.38.14-.39.45,0,.12.09.27-.11.32s-.34-.22-.37-.37.1-.26-.06-.29-.12.17-.17.27-.4.18-.55,0-.28-.18-.47,0a.41.41,0,0,1-.64.07.26.26,0,0,0-.29,0c-.12.08,0,.15,0,.23a.33.33,0,0,1-.18.41c-.06,0-.13,0-.12-.06s-.09-.21-.19-.29-.16-.23,0-.34c-.09.07-.21.06-.31.11s-.19.05-.26.19-.23.1-.33,0-.2-.21-.36,0-.23.11-.38-.1c-.12,0,0,.25-.19.26A.89.89,0,0,1,36,9.65,5.85,5.85,0,0,0,31,7c-2,0-4,0-5.94,0h-5.9a5.84,5.84,0,0,0-4.84,2.4c-.07.09-.12.19-.23.24s-.21,0-.26.13-.18.14-.22,0-.25-.33-.23-.56-.05-.08-.1-.07-.33,0-.35.09-.23.33-.13.56-.08.16-.17.08-.26-.23-.23-.42,0-.17-.1-.19-.14,0-.17.14a.32.32,0,0,1-.54.16c-.21-.18-.3-.18-.49,0a.39.39,0,0,1-.61,0c-.17-.14-.32-.1-.39.13S10,10,9.81,10a.23.23,0,0,1-.22-.14c0-.08,0-.11.2-.29-.23,0-.41.16-.63.14s-.06.07-.07.11A.18.18,0,0,1,9,10c-.09,0-.15,0-.2-.11s-.28-.27-.1-.48c.05,0,0-.1,0-.14a.3.3,0,0,0-.26,0,.11.11,0,0,0-.05.15.51.51,0,0,0,.09.16.24.24,0,0,1-.12.37c-.14.08-.19,0-.21-.16s0-.06-.1-.06c-.3,0-.3,0-.26-.34a.14.14,0,0,0-.09.15c0,.18-.06.25-.24.18s-.19,0-.28.09-.26.13-.37,0,0-.23.15-.33a.62.62,0,0,1-.3-.22c-.13.06-.09.17-.09.25a.52.52,0,0,1-.25.41c-.08,0-.21.07-.23,0-.11-.33-.44-.09-.61-.26s-.13,0-.2.06-.25.05-.29-.13,0-.3,0-.45c0,.23-.1.41-.39.37a.26.26,0,0,0-.22.14,1.48,1.48,0,0,1-.43.31c-.06,0-.14.08-.19,0s0-.12,0-.18S4,9.59,4,9.45s-.21,0-.28-.15,0,0,0,0,0,0,0,0c.06.19-.06.31-.19.41s-.19.09-.27.15S3.05,10,3,9.81s-.24-.23-.37-.06a.29.29,0,0,1-.44.1c-.21-.11-.46-.18-.31-.52-.14.17-.41.25-.28.56,0,.08,0,.16-.13.18A.15.15,0,0,1,1.27,10c-.08-.19-.3-.36-.09-.61a.37.37,0,0,1-.49,0A3.66,3.66,0,0,1,.87,8.26,11.65,11.65,0,0,1,1.34,6.85Z"/><path class="cls-1" d="M49.44,34c-.21,0-.3.17-.26.42s.09.24,0,.28-.28.15-.39-.09-.3-.2-.35-.4a.1.1,0,0,0-.15,0,.1.1,0,0,0,0,.17s.14.05.12.17-.3-.06-.36.14-.12.06-.16,0-.12-.2-.26-.1-.12,0-.14-.08a.16.16,0,0,0-.13-.16c-.07,0-.09.08-.12.14a.92.92,0,0,1-.32.33s-.09.11-.16.07-.05-.12,0-.18,0-.23,0-.35,0-.09-.08-.09-.08,0-.08.09-.12.17-.23.08-.22-.09-.31-.18-.18,0-.18.09c0,.33-.25.28-.42.27s-.22,0-.18.17.07.13,0,.17-.11,0-.14-.1a1,1,0,0,1-.08-.11.36.36,0,0,0-.61,0c0,.07-.08.12-.13,0s-.21-.1-.3,0-.17,0-.24-.06,0-.34-.23-.38c0,.13.14.35-.16.37-.05,0,0,.09,0,.13a.13.13,0,0,1,0,.21c-.06,0-.07.19-.18.12s0-.12,0-.18c0-.22-.15-.32-.26-.46s-.28-.1-.17-.24.24,0,.33.09a.26.26,0,0,0,.14.06A2.14,2.14,0,0,0,42.9,34c-.13-.13-.27,0-.38.05a.21.21,0,0,0-.09.31c.09.24,0,.41-.19.47s-.33.06-.28-.25c0,0,0-.07,0-.12l-.42.07a.26.26,0,0,1-.33-.12.28.28,0,0,0-.35-.19.41.41,0,0,0-.34.29c0,.15-.19.26-.13.44s0,.09-.07.09-.05,0-.07-.07a2.56,2.56,0,0,1-.19-.86c0-.16-.14-.06-.21-.1a.1.1,0,0,0-.15,0c0,.11.06.11.12.14s.09.13,0,.18-.14.28-.33.34a.26.26,0,0,0-.13.35s0,.12,0,.14-.09-.05-.11-.1a.51.51,0,0,1,0-.3c.06-.19,0-.33-.24-.28s-.27,0-.4,0l-.05-.07c-.33-.17-.33-.16-.34-.51a.85.85,0,0,1-.37.31c-.08,0-.14.07-.11.16a.15.15,0,0,0,.18.09c.09,0,.18-.06.26,0-.27.19-.27.19-.56,0-.12-.07-.22-.07-.28.07s-.08.13-.16.09,0-.1,0-.15a.13.13,0,0,0,0-.18c-.06-.06-.12,0-.16,0-.26.29-.56.15-.85.08s-.2-.18-.07-.33.1-.08,0-.13a.09.09,0,0,0-.14,0c0,.15-.3.24-.07.46s-.08.2-.16.24a2.24,2.24,0,0,0-.51.31c.07-.33.41-.36.45-.65-.15.06-.39-.11-.42.22,0,0,0,.07-.07.05s-.07-.07-.06-.08,0-.26.15-.29.09,0,.06-.1a.08.08,0,0,0-.12,0c-.21.11-.42.21-.62.33s-.14.09-.16,0,0-.21-.16-.19a.34.34,0,0,0-.32.18c-.05.13-.13.27,0,.42s0,.1,0,.14-.13,0-.13,0c0-.24-.27-.3-.3-.51s-.07-.17.09-.14.12,0,.13-.11a.12.12,0,0,0-.1-.14A.25.25,0,0,1,33.4,34c0-.07-.1-.14-.17,0s-.15.15,0,.23.09.16,0,.24,0,.15,0,.2a.09.09,0,0,1,0,.16c-.08.08-.09,0-.14-.05s-.27,0-.37,0-.31.27-.35-.1c0-.08-.09-.11-.17-.11s-.14,0-.13-.1-.05-.14-.13-.08-.2.1-.1.21.14.21,0,.3-.21,0-.28-.12a.91.91,0,0,0-1-.05c-.2.15-.2.15-.45.09a.49.49,0,0,1,.28-.19.67.67,0,0,0,.15-.06.23.23,0,0,0,.08-.31c-.08-.08-.21,0-.29.09s-.16.38-.43.26c0,0-.05,0-.05,0-.08.38-.6.25-.71.6a.08.08,0,0,1-.12,0,.08.08,0,0,1,0-.13c.05-.08.13-.16,0-.25s-.17,0-.25.06a.41.41,0,0,1-.39,0c.18,0,.22-.22.42-.2s.11-.12.09-.21a.11.11,0,0,0-.19-.07c-.18.17-.44.22-.58.44,0,0-.07.09-.13.07a.14.14,0,0,1-.08-.16c0-.07,0-.15.09-.14s.28-.15.43-.18.14-.1.14-.2,0-.13-.05-.15-.09,0-.12.08c-.13.26-.29.38-.61.25-.09,0-.38-.07-.4.22,0,0-.07.07-.13.13-.07-.41-.35-.12-.52-.18s-.16,0-.16-.08.07-.1.15-.08a.15.15,0,0,0,.21-.07c0-.08,0-.14-.07-.2v0c-.11-.06,0-.3-.17-.26s0,.22,0,.27-.15.46-.46.48c-.14,0-.06.17-.08.26s-.27,0-.31-.12.08-.2.17-.28.16-.1.11-.17-.15,0-.2.07a.16.16,0,0,1-.17,0,.3.3,0,0,0-.3.2A.38.38,0,0,1,25,35c-.1-.08-.09-.2-.09-.31,0-1.26,0-2.53,0-3.79,0-1.66,0-3.32,0-5a.49.49,0,0,1,0-.27c.05-.05.09-.06.13,0a1.16,1.16,0,0,1,.08.32A5.87,5.87,0,0,0,30,30.67a5.92,5.92,0,0,0,7-5.91,1,1,0,0,1,0-.38c.22,0,.36.05.33.22s.19.47.33.66.2-.1.36-.09a.31.31,0,0,1,0-.58c.13,0,.21,0,.29.12a1.38,1.38,0,0,0,.17.25c.22-.16.38-.4.67-.46s.26-.05.31.12a.25.25,0,0,1-.23.32c-.23,0-.36.15-.46.4.13-.07.15-.16.2-.23S39,25,39.09,25c.32.05.47-.23.69-.35s.13-.1.21,0a.19.19,0,0,1,0,.23c0,.07-.12.11-.13.21.19,0,.39-.15.55,0,0-.23.25-.16.33-.27s.31-.12.37,0,.2,0,.25.08.18,0,.25,0a.64.64,0,0,1,.57-.18,1.7,1.7,0,0,0,.8.18s0,0,.06.05c.1.27.29.16.45.1s.2-.16,0-.26l0-.07c0-.21.09-.31.26-.37s.33,0,.34.22a1.17,1.17,0,0,0,.22.54c-.08-.37,0-.42.32-.39,0-.07-.06-.11-.07-.17a.17.17,0,0,1,0-.21.13.13,0,0,1,.19,0c0,.05.07.11.13.08.27-.12.41.07.57.23s.11.12.21,0,.06,0,.07,0c.2.24.32,0,.48-.07s.23-.09.3.07a.74.74,0,0,0-.1-.22c0-.07-.07-.14,0-.2a.16.16,0,0,1,.22,0c.1.08.15.26.34.08s.16.1.23.19a.37.37,0,0,1,.3-.35c.11,0,.18.07.22.18s-.08.12-.21.18c.23,0,.38,0,.54,0l.07,0c.27.05.27.05.15.33,0-.08.08-.13.22-.12a3.92,3.92,0,0,1,.88.28,1.36,1.36,0,0,1,0,.2v8.54A1.36,1.36,0,0,1,49.44,34Z"/><path class="cls-5" d="M48.16,24.63c0,.09-.1.13-.2.06s-.13-.08-.19,0-.11.08-.16,0a.19.19,0,0,1,0-.21c0-.1.12.08.19,0s-.09-.22-.21-.16-.24.12-.18.29,0,.15,0,.17-.1-.05-.12-.11,0-.21-.15-.21-.05.17-.16.2l-.24-.28a.1.1,0,0,0-.15,0c-.06,0,0,.09,0,.13s.08.29.2.39c-.19.13-.15-.33-.41-.13s-.28.14-.28.35c-.11-.06-.1-.17-.16-.24s-.1-.11-.14,0-.13.07-.2,0l-.25-.26c-.05,0-.11-.1-.17-.06s-.3.16-.36-.09c0,0-.07,0-.1,0a.19.19,0,0,0,0,.1c0,.09.11.11.14.17a.18.18,0,0,1,0,.16.11.11,0,0,1-.15,0c-.08-.06-.15-.13-.24,0s0,.15,0,.23.14.14,0,.2a.14.14,0,0,1-.2-.1c0-.18-.18-.31-.17-.5s0-.33-.32-.2a.34.34,0,0,0-.19.32s-.09,0-.15,0,.11,0,.15,0,.24.07.31.17c-.14.22-.42.18-.6.34s-.12-.08-.14-.15-.18-.26-.36-.13a.22.22,0,0,1-.28-.05c-.09-.08-.12-.33-.29-.06,0,0-.07,0-.1-.06s-.14-.1-.16,0-.29.15-.37.32-.15.1-.16-.06,0-.12-.08-.11,0,.1-.1.13l-.11-.22c0-.06-.16-.12-.18-.08s-.17.24-.36.19,0,.11,0,.17,0,.12-.07.16c-.08-.37-.33-.17-.53-.16s-.12.09-.16,0a.16.16,0,0,1,.05-.2c0-.06.13-.08.14-.16s0-.14-.07-.16-.08,0-.08.07-.07.13-.16.09-.1,0-.09,0c.1.31-.2.19-.26.19a.5.5,0,0,0-.45.33c0,.07-.05.2-.15.16s-.09-.21,0-.28a.64.64,0,0,1,.51-.32c.07,0,.13,0,.13-.07s.09-.15,0-.23a.15.15,0,0,0-.21,0c-.13.09-.35,0-.39.29,0,.07-.3,0-.18.24-.23,0-.24-.19-.33-.3s-.14-.23-.28-.12a.36.36,0,0,0-.13.39c0,.12.11,0,.16,0s.06-.05.09,0,0,.08,0,.12l-.39.3s-.09,0-.11,0a1.88,1.88,0,0,0-.37-.6s-.07-.05,0-.09c.25-.26-.06-.25-.17-.35s-.11-.13-.12-.23A5.91,5.91,0,0,0,31.81,19c-.1,0-.2,0-.25-.13s.11-.11.18-.12a5.83,5.83,0,0,0,2.94-1.22.84.84,0,0,1,.24-.14c.15,0,.29-.08.43-.09a.13.13,0,0,0,.09-.05c.23-.3.28-.31.6-.11,0,0,.05.05.11,0a.7.7,0,0,1,.19-.28c.22-.19.26-.2.46,0s.34.19.43-.06.12-.12.2,0,.07.09.1.13.19.16.3,0a.34.34,0,0,1,.29-.17c.18,0,.32,0,.18.26.16,0,.24-.12.35-.15s.29,0,.26.22a1.14,1.14,0,0,1-.08.4,1.14,1.14,0,0,0,.3-.49c.06-.17,0-.45.22-.46s.16.27.23.43a.61.61,0,0,1,0,.13,2.77,2.77,0,0,0,.63-.22c.37-.15.54-.05.62.34.19-.22.28-.21,1,.13a.44.44,0,0,0,.08-.17c0-.09.06-.2.18-.18s.17.12.19.24-.09.11,0,.09.24.15.36,0,0-.12,0-.18-.21-.21-.12-.31.21,0,.31.06a.21.21,0,0,0,.19,0,.14.14,0,0,1,.18,0c.09.19.22.19.37.08a.15.15,0,0,1,.16,0c.16.07.22.05.3-.13s.3-.05.44,0,.29.28.08.54c0,.1-.15-.05-.19.05a0,0,0,0,0,0,.05c.1,0,.12-.08.19-.11a1.22,1.22,0,0,0,.33-.5c0-.07.06-.17.16-.16s.1.09.12.16c.09.27.12.27.32.07s.17-.36.26-.31a2,2,0,0,1,.48.35s0,.08.09.13c0-.23.29-.22.41-.38s.22,0,.23.12.17.26.38.27a2,2,0,0,1,.73.12.28.28,0,0,0,.4-.13.6.6,0,0,1,.91-.05c0,.21,0,.42,0,.63v5.55c0,.1,0,.2,0,.31a.3.3,0,0,0,0,.39,6.73,6.73,0,0,1,0,1.1c-.19,0-.4,0-.56-.18,0-.05-.3-.05-.45,0s0,.19,0,.34c-.11-.13-.17-.25-.09-.38s0-.17-.14-.19v0h0Z"/><path class="cls-6" d="M49.44,17.09C49.25,17,49,17,48.83,17s-.17.06-.21.14c-.18.3-.26.27-.6.18a1.74,1.74,0,0,0-.65-.09c-.3,0-.38,0-.4-.32,0-.06,0-.11-.08-.12s-.14,0-.13.1,0,.13,0,.2c-.12-.1-.23-.14-.27.07,0,0-.09.12-.12,0s-.24-.25-.41-.32,0-.13-.13-.2c0,.25-.2.36-.33.51s-.22,0-.28-.12a1.11,1.11,0,0,1,0-.31c-.15.2-.19.41-.32.57s-.11.12-.2.11c0-.17.2-.36-.07-.49,0,0-.1-.08-.15,0s-.18,0-.27,0c0,.34,0,.35-.31.21-.13,0-.21,0-.3.09s-.22.13-.24-.08-.07-.18-.13-.12c-.19.21-.3,0-.43-.06a.11.11,0,0,0-.13,0c.13.08.14.22.22.33s.08.14,0,.2-.16.14-.24.05-.23-.12-.31.06c-.08-.12,0-.15,0-.21a.2.2,0,0,0-.1-.26c-.15-.06-.1.11-.14.17s0,.15-.08.2-.1.11-.13,0c-.12-.22-.37-.22-.55-.32s-.31,0-.31.25c-.12-.09-.25-.14-.18-.33a.12.12,0,0,0-.11-.16c-.11,0-.22-.09-.34,0s-.51.17-.72.34a.05.05,0,0,1-.09-.05c.09-.25-.13-.42-.15-.65,0,.17-.21.27-.15.47s-.27.52-.37.55-.11,0-.14,0,0-.11,0-.14,0-.31.14-.44,0-.07-.1-.07a.43.43,0,0,0-.25.1c-.08.09-.16.18-.27.07s0-.16.08-.24a.41.41,0,0,0-.52.24c-.11.23-.23,0-.33-.08s0-.18-.15-.21l0,0c0,.11.06.34-.08.32s-.4,0-.48-.21c0-.08-.09-.2-.16-.14s-.31.15-.33.33,0,.13-.05.16a.11.11,0,0,1-.16-.07c-.05-.14-.19-.1-.28-.15s-.25,0-.22.17,0,.2-.15.13-.28.16-.43.05.09-.22.17-.3a5.83,5.83,0,0,0,1.8-3.83c0-.32,0-.64,0-1a.74.74,0,0,0,0-.29,12.31,12.31,0,0,0-.5-1.67c0-.09.05-.2-.09-.24s-.07-.08,0-.14a.36.36,0,0,1,.23-.43c.06.1-.08.27.09.31s.2-.1.25-.2.13-.12.21,0a1.84,1.84,0,0,1,.17.22c.08.09.16.11.23,0A.64.64,0,0,1,38,9.58s.09-.06.14-.09.12-.1.16,0,0,.13-.11.16-.14,0-.12.12.07.16.14.16c.29,0,.19.16.17.33,0-.14.42-.17.09-.41-.06-.05-.06-.22,0-.25s.29-.17.43,0,.13.23.3.13.23,0,.27-.2.2-.1.3-.16.18.08.23.18.27,0,.41.06.08-.12.07-.19.1-.25.27-.22.12.14.08.24c-.09.25.15.31.25.45s.07,0,.1,0a.17.17,0,0,0,0-.18c0-.05-.11-.13,0-.16s0-.47.34-.44c.15,0,.31-.05.28.19,0,.08.08.13.13.18a.31.31,0,0,1,.07.46c0,.06,0,.14,0,.14a.84.84,0,0,1,.47,0c.06,0,.06-.09,0-.14s-.14-.11-.21-.17a.15.15,0,0,1-.06-.15c0-.07.09-.07.14,0s.14-.05.18-.12a.1.1,0,0,1,.12,0c.06,0,.11.07.09.12-.1.23.12.39.11.62a1.86,1.86,0,0,1,.39-.63,4.83,4.83,0,0,1,.62-.37.5.5,0,0,0-.14.75c0,.07.13.16.11.21s0,.12.11.11.16-.06.1-.17-.18-.27.11-.23a.09.09,0,0,0,.08-.1c0-.25.17-.24.32-.19s.41-.07.57.12c0,0,.06,0,.07,0,.34-.26.36.1.48.25s.07.26.21.17A.27.27,0,0,0,46,9.7c-.07-.11,0-.22,0-.31s.15,0,.24,0,.21,0,.34,0,.16.12.23.22c-.1.06-.21-.13-.27,0s0,.19.13.23a.46.46,0,0,1,.25.23c-.1-.22.08-.39.07-.58s0-.12.06-.13.07,0,.08.09.06.27.25.27.09.12.13.19.08.16.19.11a.13.13,0,0,0,0-.19c0-.07-.07-.14,0-.22s.14,0,.22,0,.18.06.22,0-.06-.11-.11-.16-.13-.08-.09-.17a.14.14,0,0,1,.08-.07c.1,0,.12.07.15.14s.3.3.08.54c-.06.07,0,.23.14.25s.06-.11.08-.17a.8.8,0,0,1,.24-.3.08.08,0,0,1,0,.11c0,.07-.11.15,0,.22s.15,0,.22-.07.12-.11,0-.2-.1-.18,0-.21.17,0,.15.16.12.11.19.13a0,0,0,0,1,0,0,2,2,0,0,0,0,.8c0,.1,0,.2,0,.3v5.91A2.64,2.64,0,0,1,49.44,17.09Z"/><path class="cls-4" d="M49.44,10.6c-.11-.16,0-.38-.2-.54s.12-.15.15-.26A2,2,0,0,1,49.44,10.6Z"/><path class="cls-1" d="M49.44,24c-.15-.13-.21-.26,0-.39A.86.86,0,0,1,49.44,24Z"/><path class="cls-1" d="M49.44,34.51s-.1,0-.1-.11.06,0,.1-.06Z"/><path class="cls-1" d="M.61,35.28a1.64,1.64,0,0,1,0-.22V24.57a1.8,1.8,0,0,1,0-.22c.06-.07.18-.05.24-.12s.27-.17.15-.4,0-.41,0-.62.06-.09.13-.09a.53.53,0,0,1,.44.58.29.29,0,0,0,0,.24c0,.11.06.23.2.23S2,24.09,2,24c.13-.35.39-.4.63-.12s.27.18.37-.05a.38.38,0,0,1,.3-.26c.24-.05.32.11.36.39A1,1,0,0,1,4,23.47c.14-.15.24-.14.34,0a.62.62,0,0,0,.12.19c.13.13.23.1.29-.08s.37-.35.49-.25.47.12.7.12.35,0,.28.32c0,.09,0,.13.06.2a2.37,2.37,0,0,1,.26.53,1,1,0,0,0-.06-.23c-.11-.25,0-.47.31-.41s.45.14.66-.08c.06-.06.18,0,.24.06a.27.27,0,0,0,.38.06c.21-.14.35-.08.47.13a.37.37,0,0,1,.28-.46.08.08,0,0,1,.07,0c.07.13,0,.28,0,.43.08-.3.16-.33.4-.13.07.05.12.14.25.11a.34.34,0,0,1,.18-.49c.14-.07.29-.18.41,0s0,.3-.14.4a.09.09,0,0,0,.1,0c.14-.17.27-.34.53-.34.09,0,.18,0,.24.05a.2.2,0,0,1,0,.25s-.11,0-.06.09.08.06.09,0c.14-.2.3-.09.47-.05a.15.15,0,0,0,.15-.05c0-.08-.1-.06-.15-.1a.16.16,0,0,1-.07-.21.48.48,0,0,1,.58-.15s0,.12,0,0a0,0,0,0,0,0,0c0-.07.12-.14.15-.09.13.23.44-.17.54.15a.22.22,0,0,1-.09.31c.1.05.15,0,.21-.06s.31.07.24.18,0,.31.11.45c.08.41,0,.82.08,1.24a5.94,5.94,0,0,0,5.1,5.11c.09,0,.19,0,.24.1s-.13.13-.22.15A5.81,5.81,0,0,0,13.83,34c-.06.09-.09.21-.23.22-.06-.16-.33-.25-.13-.49,0,0,0-.12-.1-.13a.12.12,0,0,0-.15.12c0,.07.07.14,0,.21-.23.22-.11.35.14.46-.26.1-.47.22-.64-.12s-.51-.09-.65.21c-.05.11,0,.29-.22.24s-.14-.22-.14-.36,0-.39-.28-.41a.17.17,0,0,0-.15.07.13.13,0,0,0,0,.13s.17.09.1.16-.1.28-.24.32-.33.23-.2.49c-.19-.11-.19-.11-.16-.29s0-.4-.35-.36a2.69,2.69,0,0,1-.57-.06c-.12,0-.12-.13-.12-.22s.08-.15,0-.26a1.1,1.1,0,0,1-.36.32c-.08,0-.16.06-.14.17s.13.12.22.1.12-.06.18,0c-.21.22-.26.23-.46.06s-.28-.22-.35.06c0,.07-.08.07-.14,0s0-.09,0-.13.07-.09,0-.15a.13.13,0,0,0-.19,0,2,2,0,0,0-.19.12.26.26,0,0,1-.39,0,.31.31,0,0,0-.2-.07c-.24,0-.35-.08-.12-.29a.15.15,0,0,0,0-.1s0-.05-.09-.05-.15.21-.28.27,0,.1.06.15.11.11,0,.19-.15.21-.25.19-.07-.14,0-.22.12-.07.08-.15-.11,0-.17,0-.17,0-.16-.14-.11-.17-.2-.08-.42.17-.59.34-.12,0-.13-.09-.06-.2-.17-.16-.3,0-.33.19c0,0,0,.08,0,.1s0,.22-.15.19a.38.38,0,0,1-.25-.2c0-.11,0-.15.11-.21s.12-.19,0-.3-.32-.26-.48,0c-.05.11-.3.08-.32.29.22.16.28-.08.41-.19a1,1,0,0,1-.66.66c-.07,0-.13,0-.11-.08.06-.28-.23-.28-.33-.42s-.2,0-.27.1,0,.11.06.15.11.15,0,.23-.19,0-.27,0a.73.73,0,0,0-1.1-.06.32.32,0,0,1-.34,0l.06-.08c.36,0,.43-.41.69-.56,0,0,.07-.07,0-.12a.08.08,0,0,0-.13,0c-.18.17-.48.19-.6.46a.18.18,0,0,1-.28.08c-.14-.1,0-.16.07-.24s.08-.07,0-.16a1.28,1.28,0,0,0-.85.52.11.11,0,0,0,0,.15.14.14,0,0,0,.18,0l.26-.2c.06,0,.1-.15.18-.05s0,.18-.05.19a1.51,1.51,0,0,0-.72.47Z"/><path class="cls-7" d="M13.6,34.25a7.27,7.27,0,0,1,1.26-1.71,5.89,5.89,0,0,1,3.46-1.65l.18-.05a.49.49,0,0,1,.37-.09h5.78a.46.46,0,0,1,.36.09c0,1.22,0,2.43,0,3.64,0,.16,0,.31,0,.47,0,.63,0,1.26,0,1.88a6,6,0,0,1-11.91.91A5.83,5.83,0,0,1,13.6,34.25Z"/><path class="cls-1" d="M37.39,35.11s-.16,0-.13-.09,0-.24.21-.24a.13.13,0,0,1,.15.15C37.61,35.07,37.53,35.12,37.39,35.11Z"/><path class="cls-1" d="M31.13,34.84c0,.11,0,.21-.16.21s-.17,0-.18-.16.12-.15.22-.17S31.12,34.77,31.13,34.84Z"/><path class="cls-1" d="M9.05,35.11c-.05,0-.19,0-.18-.12s.05-.2.18-.2.16.06.16.17A.15.15,0,0,1,9.05,35.11Z"/><path class="cls-1" d="M36.09,34.91a1.87,1.87,0,0,1-.36.38.07.07,0,0,1-.1,0s0-.06,0-.06S35.8,34.86,36.09,34.91Z"/><path class="cls-1" d="M28.37,35.06a1.81,1.81,0,0,0-.12.22c0,.09-.06.17-.18.16s-.1,0-.09-.07a.24.24,0,0,1,.15-.24A1.21,1.21,0,0,1,28.37,35.06Z"/><path class="cls-1" d="M26.13,35.15a.31.31,0,0,1,.31-.3s.07,0,0,.09S26.33,35.23,26.13,35.15Z"/><path class="cls-1" d="M2.72,34.86a.21.21,0,0,1-.19.19c-.09,0-.13-.06-.14-.14s.13-.14.21-.17S2.72,34.77,2.72,34.86Z"/><path class="cls-1" d="M38.57,34.54c0,.19-.17.23-.15.37a.14.14,0,0,1-.09,0,.12.12,0,0,1-.1-.11c0-.06,0-.12.06-.13A.55.55,0,0,0,38.57,34.54Z"/><path class="cls-1" d="M7.25,35.27a.21.21,0,0,0,0-.06c.1-.12.14-.28.32-.31s.07,0,0,.07A.56.56,0,0,1,7.25,35.27Z"/><path class="cls-1" d="M36.45,35.22c-.1,0-.19,0-.17-.09s.23,0,.33-.11.11,0,.09.06S36.51,35.16,36.45,35.22Z"/><path class="cls-1" d="M8,35.22c-.07,0-.14,0-.12-.08s.18,0,.27-.11a.06.06,0,0,1,.09.06C8.22,35.21,8.1,35.18,8,35.22Z"/><path class="cls-1" d="M25.4,35.32c-.07,0-.09,0-.09-.08s.05-.13.12-.16a.06.06,0,0,1,.08.08C25.5,35.23,25.48,35.3,25.4,35.32Z"/><path class="cls-1" d="M10,34.82s0,.11-.09.09a.17.17,0,0,1-.12-.17.09.09,0,0,1,.11-.06A.13.13,0,0,1,10,34.82Z"/><path class="cls-1" d="M33,35.08a.14.14,0,0,1-.14.14s-.1,0-.09-.06a.17.17,0,0,1,.14-.15A.08.08,0,0,1,33,35.08Z"/><path class="cls-1" d="M4.46,35.21c-.08,0-.12,0-.12-.07A.12.12,0,0,1,4.45,35c.06,0,.09,0,.09.08A.11.11,0,0,1,4.46,35.21Z"/><path class="cls-1" d="M27.67,35.13c-.12.08-.18.17-.29.17C27.42,35.12,27.42,35.12,27.67,35.13Z"/><path class="cls-1" d="M30.42,35.22c-.05.08-.1.15-.2.14s0,0,0-.06S30.35,35.26,30.42,35.22Z"/><path class="cls-1" d="M34.82,34.8a.24.24,0,0,1-.24.13C34.62,34.78,34.7,34.77,34.82,34.8Z"/><path class="cls-1" d="M34.21,34.72s0,.09-.09.08,0-.06,0-.1a.08.08,0,0,1,.1-.07S34.22,34.67,34.21,34.72Z"/><path class="cls-1" d="M4.87,34.73c0,.05,0,.09-.09.08s-.06-.06,0-.1,0-.08.06-.07A.09.09,0,0,1,4.87,34.73Z"/><path class="cls-1" d="M31,35.49s0,.09-.08.08-.07,0-.07-.1,0-.07.07-.07S31,35.44,31,35.49Z"/><path class="cls-1" d="M2,35.25a.15.15,0,0,1-.16.1l0-.06C1.82,35.21,1.89,35.22,2,35.25Z"/><path class="cls-1" d="M2.55,35.47s0,.07,0,.07a.18.18,0,0,1-.08-.07l.05,0S2.54,35.42,2.55,35.47Z"/><path class="cls-1" d="M34.62,35.57s0-.08,0-.09,0-.1.07-.1,0,0,0,0A.53.53,0,0,1,34.62,35.57Z"/><path class="cls-1" d="M44.8,34.79s.06,0,.06.05,0,.07-.06.08-.07,0-.06,0A.47.47,0,0,1,44.8,34.79Z"/><path class="cls-1" d="M5.49,35s0,.06-.07.06a.06.06,0,0,1,0-.08s0,0,0-.05A.06.06,0,0,1,5.49,35Z"/><path class="cls-1" d="M12,34.91S12,35,12,35s0,.07-.07,0,0,0,0-.06S11.92,34.93,12,34.91Z"/><path class="cls-1" d="M5.69,34.8s0,0,0-.06,0-.08.06-.08,0,0,0,.06A.09.09,0,0,1,5.69,34.8Z"/><path class="cls-1" d="M27.19,35.48s0,.05-.05.05-.05,0,0-.05,0,0,.06,0Z"/><path class="cls-1" d="M38.36,35.37s0-.07,0-.09l.06,0,0,0S38.39,35.34,38.36,35.37Z"/><path class="cls-1" d="M7,34.91s0,.05-.08.05,0,0,0-.05l.08-.06Z"/><path class="cls-1" d="M6.24,34.84s.06,0,0,0a.08.08,0,0,1-.06,0s0,0,0,0A.1.1,0,0,1,6.24,34.84Z"/><path class="cls-8" d="M14,9.6a6.54,6.54,0,0,1,2.16-2,5.3,5.3,0,0,1,2.47-.71c2.14,0,4.27,0,6.4,0a.43.43,0,0,1,.09.36c0,3.75,0,7.49,0,11.24a.6.6,0,0,1-.07.37.44.44,0,0,1-.31.09c-2,0-4,0-6.06,0h-.09a5.54,5.54,0,0,0-.71-.12,6.39,6.39,0,0,1-3.61-2.16.91.91,0,0,1-.15-.23.63.63,0,0,0-.13-.2,1.37,1.37,0,0,1-.13-.2,6.68,6.68,0,0,1-.76-1.83,2.87,2.87,0,0,1-.07-.5.63.63,0,0,0,0-.3,5.68,5.68,0,0,1,.81-3.62C13.84,9.7,13.88,9.62,14,9.6Z"/><path class="cls-9" d="M25,18.86v-12c2.13,0,4.25-.08,6.37,0A5.71,5.71,0,0,1,36.16,9.8l.13.18s0,.1,0,.12.07.15.12.21A9.77,9.77,0,0,1,37,12c0,.09,0,.19,0,.28a6.77,6.77,0,0,1-.24,2.24,5.74,5.74,0,0,1-1.49,2.52c-.11.11-.22.22-.32.34a6.39,6.39,0,0,1-2.65,1.3l-.76.14c-.16.13-.35.08-.53.08H25.52a1,1,0,0,1-.46-.05Z"/><path class="cls-6" d="M13.09,13.7a5.2,5.2,0,0,0,.71,2.09l.12.24c-.11.11-.29.17-.2.4s-.12.12-.19.08a5.73,5.73,0,0,0-.56-.14c.09.09.22.12.28.24s.07.16,0,.23-.13,0-.19,0l-.16-.15c-.15-.14-.27-.26-.43,0s-.28.11-.4,0a1.13,1.13,0,0,1-.11-.22c-.06.11,0,.35-.28.14-.05,0-.06,0-.08.07s-.2.11-.3,0-.22-.25-.45,0a1.18,1.18,0,0,1-.22.17c-.25.15-.32.12-.33-.17a.61.61,0,0,0-.08-.27c0,.14.06.31-.17.38a.63.63,0,0,1-.73-.14c-.09-.11-.16-.25-.25-.37s0-.24.12-.37a.7.7,0,0,0-.27.65c0,.21,0,.25-.21.19a1.2,1.2,0,0,1-.52-.4.19.19,0,0,1,0-.28.57.57,0,0,0-.06.44.64.64,0,0,1-.49.55.24.24,0,0,1-.23-.14.15.15,0,0,1,.05-.19c.1-.08.17-.21.08-.29s-.3-.21-.43-.13a.62.62,0,0,1-.72,0,.19.19,0,0,0-.19,0c.06.08.25.1.14.25a.3.3,0,0,1-.32.1.7.7,0,0,1-.35-.21c-.19-.18-.27-.17-.36.06a.3.3,0,0,1-.35.23.3.3,0,0,0-.27.11.49.49,0,0,1-.18.14.18.18,0,0,1-.23,0,.16.16,0,0,1,.08-.24,1,1,0,0,0,.35-.32c-.13,0-.21,0-.25-.08s-.15-.15-.24,0c.2.09.23.17.06.3s-.33.29-.57.11a.22.22,0,0,0-.26,0c-.15.12-.25.13-.34-.06s-.1,0-.15,0a.62.62,0,0,1-.22.1c-.1,0-.2,0-.25-.08a.18.18,0,0,1,.08-.24c.22-.12.18-.28.05-.5a.37.37,0,0,1-.14.5,4.72,4.72,0,0,1-.68.41c-.07,0-.18.11-.24,0s0-.15.09-.21A4,4,0,0,0,2,16.19a.59.59,0,0,1-.64.06c.1.14.23.26.08.39s-.25.1-.3,0-.34-.29-.4-.51a.42.42,0,0,0-.11-.22c0-.92,0-1.84,0-2.76s0-1.71,0-2.56c0,0,0-.08,0-.13a2.09,2.09,0,0,0,0-.25c0-.19.15-.29.2-.43S.61,9.56.72,9.37h0c.17,0,.37.13.47-.15,0,.08.08.16.07.18-.19.19,0,.33,0,.5s.08.15.17.12.13-.12.06-.19-.05-.26.08-.34a.3.3,0,0,0,.14-.19A.14.14,0,0,1,2,9.23c.08,0,0,.11,0,.16s-.09.29.13.32.12.07.18.11.21.07.27-.06.05-.14.16-.17c.33-.07.34-.07.38.3a2,2,0,0,0,.38-.21c.1-.07.35-.19.11-.39-.05,0,0-.09,0-.13s.08,0,.1,0,.16.13.27.13.15,0,.17.12A.18.18,0,0,1,4,9.62c-.09.06-.24.05-.25.25.22-.13.45-.2.57-.41a.22.22,0,0,1,.25-.13c.24,0,.34-.1.26-.32,0-.06-.05-.11,0-.15s.09,0,.13.07,0,.26,0,.39,0,.22.06.29.14-.07.21-.12a.16.16,0,0,1,.22,0c.17.17.31.11.45,0l0,0c0,.11,0,.32.15.3a.39.39,0,0,0,.32-.37,1.23,1.23,0,0,0,0-.19c0-.08,0-.18.12-.21s.13.07.16.15a.13.13,0,0,0,.17.1c.06,0,.13,0,.15.06s0,.12-.11.14-.19.08-.14.19.17.08.26,0,.3-.31.52,0a1.29,1.29,0,0,1,0-.28c0-.1.09-.21.21-.17s0,.13,0,.19,0,.16,0,.21.12,0,.17,0,.23-.12.19.09,0,.14,0,.17.09,0,.12,0,.12-.12.09-.22l0,0c-.11-.1-.22-.24-.11-.38s.26-.06.41,0,.11.18.05.28.08.48.19.49S9,9.86,9,9.79s-.1-.18,0-.26.11.13.17.09.33-.06.47-.15.15-.16.23,0-.05.15-.12.21-.19,0-.16.16a.19.19,0,0,0,.21.11.17.17,0,0,0,.15-.2c0-.12,0-.22.18-.22s.26-.11.35.09.4.13.47-.05.27-.16.4-.25.13,0,.14.09c0,.23.21.18.36.17s.17,0,.13-.15a.15.15,0,0,1,.09-.22.33.33,0,0,1,.32,0c.09.07,0,.14,0,.22s0,.15.26.42c.09-.07,0-.14,0-.19s-.12-.2.07-.23.09-.05.07-.1c-.14-.38.18-.23.32-.28s.12,0,.17,0,.25,0,.1.15,0,.13,0,.18l.13.14c.06.08,0,.25.09.27s.06-.17.12-.23.16,0,.21.06A5.74,5.74,0,0,0,13.1,12,11.64,11.64,0,0,0,13,13.42C13.1,13.5,13,13.61,13.09,13.7Z"/><path class="cls-10" d="M18.5,18.86H25c.12.13.09.29.09.45,0,1.43,0,2.87,0,4.31a1.59,1.59,0,0,0,0,.38.43.43,0,0,1,0,.16,1,1,0,0,0,0,.38,5.92,5.92,0,0,1,0,1c-.09.09,0,.21,0,.31,0,1.65,0,3.3,0,4.95H18.5c-.32-.06-.65-.11-1-.19a6,6,0,0,1-4.49-6v-.31a1.76,1.76,0,0,1,.07-.79,6,6,0,0,1,4.71-4.65A3.07,3.07,0,0,1,18.5,18.86Z"/><path class="cls-11" d="M25.07,25.58a4.8,4.8,0,0,1,0-1.07c0-.1,0-.22,0-.33v-.11a3.24,3.24,0,0,1,.31-1.47,6,6,0,0,1,2.39-2.86,5.14,5.14,0,0,1,2.68-.87h1.09a7,7,0,0,1,2,.56A5.93,5.93,0,0,1,37,24.16c0,.07,0,.13,0,.19a6.18,6.18,0,0,1-.53,3,6,6,0,0,1-11.4-1.74Z"/><path class="cls-6" d="M36.64,17.27c.27-.06.4.15.6.21s0,.16-.05.22a.26.26,0,0,1-.36-.19C36.82,17.44,36.82,17.44,36.64,17.27Z"/><path class="cls-1" d="M48.76,24.67s-.06.06-.11.06a.64.64,0,0,1-.37-.46c0-.05.06-.1.09-.07Z"/><path class="cls-1" d="M37.56,24.67a.21.21,0,0,1-.16-.21c0-.06,0-.15.07-.15a.2.2,0,0,1,.2.19A.14.14,0,0,1,37.56,24.67Z"/><path class="cls-1" d="M39.28,24.3s0,.1-.06.08-.22-.13-.36-.06,0-.09,0-.11.21,0,.31-.06S39.28,24.22,39.28,24.3Z"/><path class="cls-6" d="M43.55,17.48c0-.06,0-.16.09-.16s.17.06.15.16,0,.19-.1.2S43.56,17.58,43.55,17.48Z"/><path class="cls-6" d="M44.63,17.41c-.1.1-.05.25-.17.25a.18.18,0,0,1-.13-.19c0-.07,0-.17.08-.18S44.49,17.44,44.63,17.41Z"/><path class="cls-1" d="M45.88,24.5c.12-.1.18-.24.32-.13s.08.09,0,.15S46,24.51,45.88,24.5Z"/><path class="cls-1" d="M43.55,23.86c.14,0,.12.13.16.21s0,.11-.07.09a.29.29,0,0,1-.18-.19C43.43,23.91,43.47,23.86,43.55,23.86Z"/><path class="cls-1" d="M43.55,24.76c0,.1,0,.15-.1.14a.2.2,0,0,1-.16-.17s0-.13.08-.11A.54.54,0,0,1,43.55,24.76Z"/><path class="cls-1" d="M49.09,24.47c0,.06,0,.16-.14.13s-.13,0-.11-.12.12-.06.18-.08S49.09,24.42,49.09,24.47Z"/><path class="cls-6" d="M40.47,17.05c.06,0,.08,0,.08.08s0,.15-.11.16-.1,0-.1-.09S40.4,17.08,40.47,17.05Z"/><path class="cls-6" d="M38,17.5c0,.07,0,.08-.08.08s-.13,0-.15-.09a.09.09,0,0,1,.07-.11C38,17.37,38,17.44,38,17.5Z"/><path class="cls-1" d="M45.74,23.79a.15.15,0,0,1-.15.11c-.06,0-.12,0-.11-.08a.12.12,0,0,1,.13-.11S45.7,23.76,45.74,23.79Z"/><path class="cls-1" d="M41,24.1s0,.08-.09.08a.12.12,0,0,1-.11-.13c0-.05,0-.08.09-.08S41,24,41,24.1Z"/><path class="cls-1" d="M43.27,24.42s0,.09-.08.07-.1,0-.09-.1.06-.08.1-.08S43.25,24.38,43.27,24.42Z"/><path class="cls-1" d="M49.13,24.88a.22.22,0,0,1-.05-.11.06.06,0,0,1,.07-.06c.06,0,.06.06.06.1S49.19,24.88,49.13,24.88Z"/><path class="cls-1" d="M37.91,24.31a.08.08,0,0,1-.06.08c-.05,0-.08,0-.1-.07s0-.07.06-.07A.1.1,0,0,1,37.91,24.31Z"/><path class="cls-1" d="M38.48,24.66c0-.06.05-.14.13-.15s.06,0,0,.08A.11.11,0,0,1,38.48,24.66Z"/><path class="cls-1" d="M41.71,24.44s0,.07-.07,0a.1.1,0,0,1-.06-.07c0-.05,0-.06.07-.06S41.71,24.4,41.71,24.44Z"/><path class="cls-1" d="M46.65,23.6a.08.08,0,0,1-.06.08s-.08,0-.07-.06a.09.09,0,0,1,.06-.07S46.65,23.55,46.65,23.6Z"/><path class="cls-1" d="M43,24.72s0,0-.06-.06,0-.07.06-.07.07,0,.07.05S43,24.72,43,24.72Z"/><path class="cls-1" d="M48.35,23.78c.07,0,.12.06.11.13s-.05,0-.06,0S48.3,23.85,48.35,23.78Z"/><path class="cls-6" d="M48.79,17.23s-.07,0-.07-.06a.08.08,0,0,1,0-.06s.07,0,.08.05S48.82,17.22,48.79,17.23Z"/><path class="cls-1" d="M47.74,24l-.06,0s-.06,0,0-.06,0,0,.06,0S47.75,24,47.74,24Z"/><path class="cls-1" d="M48.16,24.63A.21.21,0,0,1,48,24.5l.06,0C48.17,24.5,48.15,24.57,48.16,24.63Z"/><path class="cls-6" d="M46,17.35a.07.07,0,0,1-.07.06s-.06,0,0-.05a.14.14,0,0,1,.08-.07S46,17.32,46,17.35Z"/><path class="cls-6" d="M47.25,17.5s0,.06,0,.06,0,0,0-.06,0,0,0,0Z"/><path class="cls-6" d="M45.33,17.57l-.07.05a.27.27,0,0,1-.08-.07s0-.05,0,0Z"/><path class="cls-1" d="M40.23,24.45s0,0,0,.06,0,0-.06,0a.12.12,0,0,1,0-.07Z"/><path class="cls-1" d="M38.08,23.89s0-.07,0-.06,0,0,0,.05,0,0,0,.05Z"/><path class="cls-1" d="M42.63,23.89s0-.07,0-.06,0,0,0,.05,0,0,0,.05Z"/><path class="cls-1" d="M38.49,24.27s0,.07-.05.06,0,0,0-.06l0,0Z"/><path class="cls-1" d="M43.2,24.31l.1-.23C43.35,24.22,43.29,24.26,43.2,24.31Z"/><path class="cls-1" d="M39.94,24.15s0,.07,0,.05a.09.09,0,0,1,0-.06,0,0,0,0,1,0,0Z"/><path class="cls-4" d="M40.44,9.86c0,.15-.1.18-.21.18S40,10,40,9.87s.18-.11.28-.14S40.43,9.8,40.44,9.86Z"/><path class="cls-4" d="M44.58,10.26l-.07-.36c.09,0,.21-.07.25.06S44.67,10.15,44.58,10.26Z"/><path class="cls-4" d="M40.22,10.5s0,.12-.06.12-.1-.07-.1-.13,0-.15.07-.15S40.22,10.43,40.22,10.5Z"/><path class="cls-4" d="M47.89,9.79l.29.14C48,10,47.93,10,47.89,9.79Z"/><path class="cls-4" d="M36.45,10.31l-.12-.21C36.57,10.06,36.54,10.17,36.45,10.31Z"/><path class="cls-4" d="M41.59,9.48a.06.06,0,0,1-.08,0,.12.12,0,0,1-.1-.08c0-.07.05-.08.1-.06A.1.1,0,0,1,41.59,9.48Z"/><path class="cls-4" d="M39.33,10c.05,0,.06,0,.05.08s0,.09-.08.08a.08.08,0,0,1-.06-.08A.09.09,0,0,1,39.33,10Z"/><path class="cls-4" d="M37,12.32A.53.53,0,0,1,37,12C37,12.12,37,12.23,37,12.32Z"/><path class="cls-12" d="M18.5,18.86a8,8,0,0,0-1.67.42,5.9,5.9,0,0,0-3.74,4.89,1.21,1.21,0,0,1-.05.18,1.13,1.13,0,0,1-.18-.12c-.08-.07-.26-.14,0-.22s.09-.13,0-.21-.14,0-.18,0-.2.07-.29,0-.05-.09,0-.13.18-.12,0-.32c-.1.21-.1.21-.3.05s-.16.09-.24.15c-.07-.12-.15-.27-.31-.09a.18.18,0,0,1-.17.07c-.07,0-.09,0-.09.1s0,.12.09.12.3,0,.21.16-.24.14-.38.08-.21-.1-.3.14c-.1-.1-.27-.1-.31-.25s.09,0,.14,0,.13-.15.05-.24-.48.07-.5.15-.26.33-.37.23-.11-.15,0-.17.16,0,.16-.15,0-.13-.08-.16a.18.18,0,0,0-.23,0c-.13.12-.43.17-.17.44a.08.08,0,0,1,0,.12.17.17,0,0,1-.21,0l-.24-.23s-.08-.08-.14-.05S9,24,9,24s.08.11,0,.14a.19.19,0,0,1-.18,0,.08.08,0,0,1,0-.12c.09-.13,0-.27.05-.41A.27.27,0,0,0,9,23.55s0,.06-.07.08c-.2.13-.38.25-.19.53-.15.05-.21,0-.26-.13s-.08-.23-.24-.05a.32.32,0,0,1-.5,0c-.09-.14-.19-.14-.3,0s-.23.22-.41.06a.29.29,0,0,0-.38,0c-.13.11-.11.21,0,.33a0,0,0,0,0,0,0c-.06.13.18.31,0,.36s-.07-.19-.15-.27a2,2,0,0,1-.21-.38c-.07-.12-.29-.21,0-.35,0,0,0-.08,0-.12s-.14,0-.22,0c-.24,0-.52.17-.71-.12,0,0-.1-.07-.11,0s-.35-.06-.33.21c0,.1,0,.24-.09.26a.43.43,0,0,1-.36-.16c-.08-.09,0-.33-.2-.28a.67.67,0,0,0-.35.37.45.45,0,0,1-.06.12c0,.05-.07.09-.14.06s0-.07,0-.11,0-.29-.16-.29-.33,0-.33.25-.13.2-.26.23a.18.18,0,0,1-.23-.15c-.05-.18-.19-.18-.33-.18s-.17.13-.18.26a.31.31,0,0,1-.3.27c-.12,0-.3,0-.27-.26s-.18-.24,0-.37c.07-.05-.1-.22-.16-.32a.35.35,0,0,0-.29-.15h0a1.81,1.81,0,0,0,0,.65.44.44,0,0,1-.27.52H.61a1.23,1.23,0,0,1,0-.19v-8a1.23,1.23,0,0,1,0-.19c.1.05.24.07.18.25s0,.11.08.12a.26.26,0,0,1,.22.25c0,.12.11.1.2.1a.13.13,0,0,0,.14-.1c0-.09,0-.14-.1-.17s-.17,0-.1-.14a.11.11,0,0,1,.18,0A.4.4,0,0,0,2,16.11c0-.05.11-.11.16-.05s0,.12-.07.17l-.52.55a3.09,3.09,0,0,0,1-.57c.11-.09.06-.22,0-.33s0-.13,0-.15.07.06.09.1c.1.22.27.46-.11.59a.12.12,0,0,0,0,.17c0,.06.09.05.14,0a.6.6,0,0,0,.19-.06c.13-.07.3-.37.34.07,0,.06.09.07.13,0,.18-.28.37,0,.55,0,0,0,.06.05.09.07s.06-.16.15-.19.24,0,.2-.17-.17,0-.3-.08c.17-.07.28-.17.29-.33.22,0,.07.62.5.23a.6.6,0,0,1-.38.52c-.09,0-.17.08-.12.17s.16.06.22,0a.5.5,0,0,1,.55-.23c.07,0,.13,0,.13-.13a.36.36,0,0,1,.22-.32c.12-.05.22.1.3.2a.43.43,0,0,0,.5.16.11.11,0,0,0,.08-.13c-.06-.07-.18.07-.24-.05a.11.11,0,0,1,.05-.15c.1,0,.21-.12.31,0a.41.41,0,0,0,.66-.07s.06,0,.09-.05c.07.21.32.09.42.21s0,.3,0,.41-.17.07-.07.18a.18.18,0,0,0,.27,0c.11-.06.09-.28.31-.23,0,0,0-.16,0-.25-.06-.32,0-.5.31-.52,0,.07,0,.1-.07.13s-.12.17,0,.26a1.27,1.27,0,0,0,.67.39c-.24-.3.06-.54,0-.81a.44.44,0,0,1,.3-.12c.15,0,0,.15,0,.18-.38.31.08.44.15.63s.27.19.49.15c.39-.07.22-.36.31-.56,0,.19.25.31.16.53,0,.05,0,.1,0,.13a.11.11,0,0,0,.15,0c.1-.11.24-.15.34-.27s.33-.2.46.05c0,.07.06.15.15.14s.07-.1.08-.17,0-.11.05-.11.14.14.22.2.07-.1,0-.17-.06-.15.06-.16.13.06.13.14.08.23.22.28.17-.1.22-.19.18-.18.3,0,.26.16.34.31.05.07.09,0,0-.07,0-.12a.35.35,0,0,0-.27-.22c-.1,0-.18-.07-.11-.19s.12,0,.19,0,.38.06.55.17.11,0,.08-.08c-.22-.32,0-.34.24-.36l.12.18c0,.06,0,.13.1.15a6,6,0,0,0,4.18,2.45Z"/><path class="cls-4" d="M.72,9.37c0,.24.17.29.34.4a.57.57,0,0,0-.39.65.18.18,0,0,1-.06.18A3.18,3.18,0,0,1,.72,9.37Z"/><path class="cls-6" d="M14.14,16.36c-.21.08-.11-.06-.1-.15A.22.22,0,0,1,14.14,16.36Z"/><path class="cls-4" d="M13.09,13.7c-.08-.09,0-.19-.05-.28A.44.44,0,0,1,13.09,13.7Z"/><path class="cls-13" d="M30.45,18.87a6.84,6.84,0,0,0-2,.58,6,6,0,0,0-3.35,4.62c-.09-.08,0-.19,0-.28,0-1.64,0-3.28,0-4.92Z"/><path class="cls-4" d="M11.86,10c-.08,0-.18,0-.2-.1s.09-.12.17-.13.17,0,.18.13S11.92,10,11.86,10Z"/><path class="cls-4" d="M4.71,9.72c0,.1-.08.12-.14.14s-.12,0-.13-.1,0-.16.11-.16A.14.14,0,0,1,4.71,9.72Z"/><path class="cls-4" d="M4.83,10.3s-.09,0-.09-.09,0-.11.12-.1.08,0,.07.09S4.89,10.3,4.83,10.3Z"/><path class="cls-12" d="M12.36,16.36a.08.08,0,0,1-.08.09.09.09,0,0,1-.11-.08.1.1,0,0,1,.08-.1A.09.09,0,0,1,12.36,16.36Z"/><path class="cls-4" d="M5.2,9.77c.08,0,.12.06.11.12a.06.06,0,0,1-.07.06.11.11,0,0,1-.1-.11S5.19,9.79,5.2,9.77Z"/><path class="cls-4" d="M5.26,10.42s-.08,0-.07-.06,0-.08.09-.09.09,0,.08.07S5.31,10.41,5.26,10.42Z"/><path class="cls-4" d="M11.81,10.51c0,.06,0,.1-.06.1s-.07-.07-.08-.12,0-.09.05-.07S11.79,10.49,11.81,10.51Z"/><path class="cls-4" d="M7,10.32s0,0-.07-.06,0,0,0,0l.09,0S7.05,10.31,7,10.32Z"/><path class="cls-4" d="M3.6,10s-.05,0-.08.06,0,0,0,0l.08-.06Z"/><path class="cls-4" d="M10.06,10.1S10,10,10,10s0-.06.07-.07.05,0,0,0Z"/><path class="cls-14" d="M25.07,24.18c0,.12,0,.23,0,.33C25,24.4,25,24.28,25.07,24.18Z"/><path class="cls-1" d="M8,23.11s0,.05,0,.06c-.22.09-.06.17,0,.22s.18.14.11.24a.48.48,0,0,1-.3.21s-.09-.05-.13-.09a.05.05,0,0,1,0-.09c.27-.06.13-.2.06-.32a.2.2,0,0,1,.17-.3S8,23.05,8,23.11Z"/><path class="cls-1" d="M2.29,23a.49.49,0,0,1,.27.2.15.15,0,0,1,0,.23,1.09,1.09,0,0,1-.33.19s-.1-.07-.12-.13,0-.17.07-.19S2.32,23.17,2.29,23Z"/><path class="cls-1" d="M7,23.41c.07,0,.24,0,.18.08s0,.36-.19.37a.31.31,0,0,1-.26-.31C6.73,23.41,6.9,23.42,7,23.41Z"/><path class="cls-1" d="M4.05,23.25c-.08,0-.23.06-.2-.08s.2-.21.33-.23.14.11.13.18S4.19,23.31,4.05,23.25Z"/><path class="cls-1" d="M3.32,23.11c.07,0,.13,0,.11.06s0,.27-.17.28a.18.18,0,0,1-.2-.18C3.05,23.06,3.24,23.17,3.32,23.11Z"/><path class="cls-1" d="M3.29,22.94c-.06,0-.15-.05-.15-.11s.16-.07.24-.13.11,0,.09.06A.24.24,0,0,1,3.29,22.94Z"/><path class="cls-1" d="M11.08,23.55a.21.21,0,0,1,.13.19c0,.05,0,.1-.07.09a.19.19,0,0,1-.14-.18S11,23.57,11.08,23.55Z"/><path class="cls-1" d="M12.87,23.12c-.06.11,0,.24-.15.26s-.06-.05-.07-.1S12.73,23.12,12.87,23.12Z"/><path class="cls-1" d="M8.88,23.63c0-.09-.06-.21.08-.26a.07.07,0,0,1,.08.06C9.06,23.55,9,23.62,8.88,23.63Z"/><path class="cls-1" d="M1.55,23s0,.09-.07.09A.1.1,0,0,1,1.36,23a.08.08,0,0,1,.08-.11C1.51,22.93,1.53,23,1.55,23Z"/><path class="cls-1" d="M4.22,22.63c0,.05,0,.1-.08.09s-.08-.06-.08-.13,0-.09.08-.09S4.22,22.57,4.22,22.63Z"/><path class="cls-1" d="M9.69,23.2a.08.08,0,0,1,.07.1.1.1,0,0,1-.09.08c-.06,0-.07-.05-.06-.1S9.63,23.2,9.69,23.2Z"/><path class="cls-1" d="M2.54,22.84a.1.1,0,0,1-.07.1.06.06,0,0,1-.07-.06s0-.1,0-.11S2.52,22.8,2.54,22.84Z"/><path class="cls-6" d="M13.84,16.66a.1.1,0,0,1-.07-.1c0-.06,0-.08.1-.07s.05,0,.05.08A.09.09,0,0,1,13.84,16.66Z"/><path class="cls-6" d="M13.47,16.63a.07.07,0,0,1,.06.07s0,.07,0,.07-.06,0-.07-.05A.09.09,0,0,1,13.47,16.63Z"/><path class="cls-1" d="M10.82,23.13a.3.3,0,0,1-.07.08s-.08,0-.07,0a.12.12,0,0,1,.07-.07S10.79,23.11,10.82,23.13Z"/><path class="cls-1" d="M9.39,23.77s0,.05,0,.09,0,.07-.07.05,0,0,0-.07S9.34,23.77,9.39,23.77Z"/><path class="cls-1" d="M5.24,22.94s0,.07-.08.06a.07.07,0,0,1,0-.06s0-.07.08-.05Z"/><path class="cls-6" d="M9.1,16.46s0,0-.06,0a.07.07,0,0,1,0-.05s0-.07.06-.06S9.09,16.43,9.1,16.46Z"/><path class="cls-1" d="M10.65,22.68l0,0s0,0,0-.06,0-.05,0,0S10.64,22.65,10.65,22.68Z"/><path class="cls-1" d="M8.62,23.32s.05,0,.06.05,0,.06,0,.06a.07.07,0,0,1-.05,0S8.6,23.35,8.62,23.32Z"/></g></svg>