<svg xmlns="http://www.w3.org/2000/svg" viewBox="0 0 50 50"><defs><style>.cls-1{fill:#e44d26;}.cls-2{fill:#f16529;}.cls-3{fill:#ebebeb;}.cls-4{fill:#fff;}</style></defs><g id="Layer_3" data-name="Layer 3"><polygon class="cls-1" points="11.13 45.61 7.99 10.34 42.54 10.34 39.39 45.6 25.24 49.53 11.13 45.61"/><polygon class="cls-2" points="25.26 46.53 36.7 43.36 39.39 13.22 25.26 13.22 25.26 46.53"/><polygon class="cls-3" points="25.26 26.3 19.54 26.3 19.14 21.87 25.26 21.87 25.26 17.55 25.25 17.55 14.41 17.55 14.52 18.71 15.58 30.63 25.26 30.63 25.26 26.3"/><polygon class="cls-3" points="25.26 37.54 25.24 37.54 20.43 36.24 20.12 32.79 17.78 32.79 15.78 32.79 16.38 39.58 25.24 42.04 25.26 42.04 25.26 37.54"/><path d="M11.2.75h2.2V2.92h2V.75h2.2V7.33h-2.2V5.13h-2v2.2H11.2V.75Z"/><path d="M20.5,2.93H18.56V.75h6.07V2.93H22.7v4.4H20.5V2.93Z"/><path d="M25.6.75h2.29L29.3,3.06,30.71.75H33V7.33H30.81V4.07L29.3,6.41h0L27.75,4.07V7.33H25.6Z"/><path d="M34.1.75h2.19v4.4h3.1V7.33H34.1Z"/><polygon class="cls-4" points="25.25 26.3 25.25 30.63 30.57 30.63 30.07 36.24 25.25 37.54 25.25 42.04 34.12 39.58 34.18 38.85 35.2 27.46 35.3 26.3 34.14 26.3 25.25 26.3"/><polygon class="cls-4" points="25.25 17.55 25.25 20.23 25.25 21.86 25.25 21.87 35.68 21.87 35.68 21.87 35.7 21.87 35.78 20.9 35.98 18.71 36.08 17.55 25.25 17.55"/></g></svg>