<svg id="Layer_1" data-name="Layer 1" xmlns="http://www.w3.org/2000/svg" viewBox="0 0 50 50"><defs><style>.cls-1{fill:#4b4b4d;}.cls-2{fill:#f38030;}.cls-3{fill:#f89b34;}.cls-4{fill:#231f20;fill-rule:evenodd;}.cls-5{fill:#fff;}.cls-6{fill:#eaebec;}</style></defs><polyline class="cls-1" points="25.04 49.53 10.91 45.6 7.77 10.31 42.35 10.31 39.2 45.6"/><polyline class="cls-1" points="36.5 43.35 39.19 13.19 25.06 13.19 25.06 46.53"/><polyline class="cls-1" points="25.97 0.72 25.97 2.5 27.85 5.17 26.11 5.17 26.11 7.3 31.34 7.3 31.34 5.27 29.6 3.04 31.34 3.04 31.34 0.72"/><polyline class="cls-1" points="25.84 17.52 25.84 21.85 35.52 21.64 35.89 17.52"/><polyline class="cls-1" points="33.94 26.29 25.84 26.29 25.84 30.61 31.36 30.25 30.86 36.05 25.84 37.32 25.84 41.82 33.92 39.58 33.98 38.84 35 27.45 35.1 26.29"/><polyline class="cls-1" points="29.42 28.51 25.84 28.51 25.84 19.69 29.81 19.69"/><polyline class="cls-1" points="24.13 37.28 18.53 35.7 18.35 33.27 15.56 32.78 16.17 39.58 24.13 41.79"/><polyline class="cls-1" points="24.13 17.52 20.46 17.52 21.22 39.71 24.13 39.71"/><polyline class="cls-1" points="21.87 0.72 21.87 5.12 20.98 5.12 20.98 4.3 18.78 4.3 18.78 7.3 24.07 7.3 24.07 0.72"/><polyline class="cls-2" points="25.04 49.53 10.91 45.6 7.77 10.31 42.35 10.31 39.2 45.6"/><polyline class="cls-3" points="36.5 43.35 39.19 13.19 25.06 13.19 25.06 46.53"/><polyline class="cls-4" points="25.97 0.72 25.97 2.5 27.85 5.17 26.11 5.17 26.11 7.3 31.34 7.3 31.34 5.27 29.6 3.04 31.34 3.04 31.34 0.72"/><polyline class="cls-5" points="25.84 17.52 25.84 21.85 35.52 21.64 35.89 17.52"/><polyline class="cls-5" points="33.94 26.29 25.84 26.29 25.84 30.61 31.36 30.25 30.86 36.05 25.84 37.32 25.84 41.82 33.92 39.58 33.98 38.84 35 27.45 35.1 26.29"/><polyline class="cls-5" points="29.42 28.51 25.84 28.51 25.84 19.69 29.81 19.69"/><polyline class="cls-6" points="24.13 37.28 18.53 35.7 18.35 33.27 15.56 32.78 16.17 39.58 24.13 41.79"/><polyline class="cls-6" points="24.13 17.52 20.46 17.52 21.22 39.71 24.13 39.71"/><polyline class="cls-4" points="21.87 0.72 21.87 5.12 20.98 5.12 20.98 4.3 18.78 4.3 18.78 7.3 24.07 7.3 24.07 0.72"/></svg>