<svg xmlns="http://www.w3.org/2000/svg" viewBox="0 0 50 50"><defs><style>.cls-1{fill:#00005b;}.cls-2{fill:#99f;}</style></defs><g id="Layer_3" data-name="Layer 3"><g id="Layer_2" data-name="Layer 2"><g id="Surfaces"><g id="Video_Audio_Surface" data-name="Video Audio Surface"><g id="Outline_no_shadow" data-name="Outline no shadow"><path class="cls-1" d="M8.85.78h32.3A8.85,8.85,0,0,1,50,9.64v31a8.84,8.84,0,0,1-8.85,8.85H8.85A8.84,8.84,0,0,1,0,40.68v-31A8.85,8.85,0,0,1,8.85.78Z"/></g></g></g><g id="Outlined_Mnemonics_Logos" data-name="Outlined Mnemonics Logos"><g id="Pr"><path class="cls-2" d="M11.88,35V13.53c0-.14.06-.23.2-.23.36,0,.69,0,1.17,0l1.58,0,1.82,0c.64,0,1.27,0,1.89,0a12.14,12.14,0,0,1,4.29.65,7.37,7.37,0,0,1,2.79,1.7,6.71,6.71,0,0,1,1.53,2.38,8,8,0,0,1,.47,2.71,7.37,7.37,0,0,1-1.25,4.43A7.13,7.13,0,0,1,23,27.6a13.54,13.54,0,0,1-4.69.7c-.5,0-.83,0-1,0s-.5,0-.89,0V35a.26.26,0,0,1-.23.29h-4C12,35.24,11.88,35.16,11.88,35Zm4.54-17.64v7c.29,0,.56,0,.81,0h1.1a7.77,7.77,0,0,0,2.4-.38,3.6,3.6,0,0,0,1.71-1.1,3.26,3.26,0,0,0,.64-2.15,3.37,3.37,0,0,0-.48-1.85,3,3,0,0,0-1.45-1.19,6.22,6.22,0,0,0-2.46-.42c-.54,0-1,0-1.42,0a3.8,3.8,0,0,0-.85,0Z"/><path class="cls-2" d="M30.54,18.53h3.65a.48.48,0,0,1,.44.34,2.08,2.08,0,0,1,.12.52c0,.21.08.44.1.64a5.78,5.78,0,0,1,0,.75A7.62,7.62,0,0,1,37.13,19a6.44,6.44,0,0,1,3.16-.81.25.25,0,0,1,.29.23v4.14c0,.17-.1.23-.33.23A9.43,9.43,0,0,0,38,23a8.92,8.92,0,0,0-1.75.56,3.14,3.14,0,0,0-1.06.78V35c0,.21-.09.29-.27.29H30.81a.29.29,0,0,1-.33-.25V23.37c0-.5,0-1,0-1.57s0-1.08,0-1.62-.05-.94-.09-1.42a.19.19,0,0,1,.15-.23s0,0,.06,0Z"/></g></g></g></g></svg>