<svg xmlns="http://www.w3.org/2000/svg" viewBox="0 0 50 50"><defs><style>.cls-1{fill:#300;}.cls-2{fill:#ff9a00;}</style></defs><g id="Layer_3" data-name="Layer 3"><g id="Layer_2" data-name="Layer 2"><g id="Surfaces"><g id="Drawing_Surface" data-name="Drawing Surface"><g id="Outline_no_shadow" data-name="Outline no shadow"><rect class="cls-1" y="0.78" width="50" height="48.75" rx="8.85"/></g></g></g><g id="Outlined_Mnemonics_Logos" data-name="Outlined Mnemonics Logos"><g id="Ai"><path class="cls-2" d="M24.23,30H16.48l-1.58,4.9a.39.39,0,0,1-.4.3H10.58c-.23,0-.3-.12-.24-.37l6.71-19.32a6.52,6.52,0,0,0,.2-.69,6.9,6.9,0,0,0,.14-1.36.2.2,0,0,1,.17-.23H23c.16,0,.25.05.27.17L30.84,34.9c.06.23,0,.34-.2.34H26.28a.32.32,0,0,1-.34-.24Zm-6.54-4.23H23c-.14-.44-.29-.95-.47-1.51s-.37-1.15-.57-1.79-.4-1.28-.61-1.91-.38-1.25-.55-1.85-.32-1.13-.45-1.62h0a25.14,25.14,0,0,1-.7,2.68c-.31,1-.63,2-1,3.08s-.64,2-.95,2.92Z"/><path class="cls-2" d="M35.36,16.82a2.43,2.43,0,0,1-1.84-.73,2.66,2.66,0,0,1-.7-1.92,2.46,2.46,0,0,1,.75-1.86,2.58,2.58,0,0,1,1.86-.72,2.5,2.5,0,0,1,1.9.72A2.62,2.62,0,0,1,38,14.17a2.64,2.64,0,0,1-.72,1.92A2.56,2.56,0,0,1,35.36,16.82ZM33.05,34.9v-16q0-.3.27-.3h4.12q.27,0,.27.3v16c0,.23-.09.34-.27.34H33.35C33.15,35.24,33.05,35.13,33.05,34.9Z"/></g></g></g></g></svg>