<svg xmlns="http://www.w3.org/2000/svg" viewBox="0 0 50 50"><defs><style>.cls-1{fill:#49021f;}.cls-2{fill:#f36;}</style></defs><g id="Layer_3" data-name="Layer 3"><g id="Surfaces"><g id="Publishing_Surface" data-name="Publishing Surface"><g id="Outline_no_shadow" data-name="Outline no shadow"><rect class="cls-1" y="0.61" width="50" height="48.75" rx="8.85"/></g></g></g><g id="Outlined_Mnemonics_Logos" data-name="Outlined Mnemonics Logos"><g id="Id"><path class="cls-2" d="M18.16,13.36V34.73q0,.33-.3.33H13.8q-.27,0-.27-.33V13.36c0-.18.1-.26.3-.27h4.06a.25.25,0,0,1,.27.21Z"/><path class="cls-2" d="M30.17,35.4a10.45,10.45,0,0,1-4.48-.94,7.11,7.11,0,0,1-3.14-2.83,9.1,9.1,0,0,1-1.14-4.75,8.77,8.77,0,0,1,1.14-4.39,8.36,8.36,0,0,1,3.32-3.22,10.69,10.69,0,0,1,5.27-1.21,3.56,3.56,0,0,1,.43,0c.18,0,.4,0,.64.05V11.52c0-.16.07-.24.2-.24h4.23a.18.18,0,0,1,.2.15V31.31c0,.38,0,.79,0,1.24s.06.85.08,1.21a.34.34,0,0,1-.2.33,16.64,16.64,0,0,1-3.38,1A18.37,18.37,0,0,1,30.17,35.4Zm2-4.16V22.08a4.86,4.86,0,0,0-.55-.1q-.35,0-.69,0a5.19,5.19,0,0,0-2.35.54,4.32,4.32,0,0,0-2.45,4.19,6.07,6.07,0,0,0,.36,2.15,4,4,0,0,0,.94,1.47,3.53,3.53,0,0,0,1.4.84,5.68,5.68,0,0,0,1.73.27c.31,0,.61,0,.87,0A3.72,3.72,0,0,0,32.21,31.24Z"/></g></g></g></svg>