<svg xmlns="http://www.w3.org/2000/svg" viewBox="0 0 50 50"><defs><style>.cls-1{fill:#001e36;}.cls-2{fill:#31a8ff;}</style></defs><g id="Layer_3" data-name="Layer 3"><g id="Layer_2" data-name="Layer 2"><g id="Surfaces"><g id="Photo_Surface" data-name="Photo Surface"><g id="Outline_no_shadow" data-name="Outline no shadow"><rect class="cls-1" y="0.78" width="50" height="48.75" rx="8.85"/></g></g></g><g id="Outlined_Mnemonics_Logos" data-name="Outlined Mnemonics Logos"><g id="Ps"><path class="cls-2" d="M11.26,35V13.54c0-.16.07-.24.2-.24h1.18l1.59,0,1.81,0,1.9,0a12.47,12.47,0,0,1,4.29.64A7.43,7.43,0,0,1,25,15.55a6.72,6.72,0,0,1,1.53,2.36,8,8,0,0,1,.47,2.7A7.44,7.44,0,0,1,25.78,25a7,7,0,0,1-3.35,2.53,13.26,13.26,0,0,1-4.7.71l-1,0-.9,0v6.7a.27.27,0,0,1-.23.3H11.49C11.34,35.24,11.26,35.15,11.26,35Zm4.53-17.64v7l.8,0H17.7A7.82,7.82,0,0,0,20.1,24a3.62,3.62,0,0,0,1.71-1.11,3.19,3.19,0,0,0,.65-2.15A3.43,3.43,0,0,0,22,18.87a3.15,3.15,0,0,0-1.46-1.19,6.2,6.2,0,0,0-2.45-.42l-1.43,0c-.41,0-.7,0-.85,0Z"/><path class="cls-2" d="M40,23.05a7.88,7.88,0,0,0-2-.71,11.49,11.49,0,0,0-2.33-.27,4.44,4.44,0,0,0-1.26.15,1.14,1.14,0,0,0-.65.42,1.06,1.06,0,0,0-.17.57.82.82,0,0,0,.2.54,2.09,2.09,0,0,0,.7.55A13.27,13.27,0,0,0,36,25a14.7,14.7,0,0,1,3.2,1.53,4.89,4.89,0,0,1,1.65,1.73,4.53,4.53,0,0,1,.48,2.14,4.84,4.84,0,0,1-.8,2.77A5.3,5.3,0,0,1,38.17,35a9.37,9.37,0,0,1-3.78.67,13.44,13.44,0,0,1-2.83-.27,8.8,8.8,0,0,1-2.13-.67.44.44,0,0,1-.24-.4V30.73a.23.23,0,0,1,.09-.19.17.17,0,0,1,.18,0,9,9,0,0,0,2.58,1,10.76,10.76,0,0,0,2.45.32,3.78,3.78,0,0,0,1.73-.3.94.94,0,0,0,.55-.87,1.1,1.1,0,0,0-.5-.84,8.18,8.18,0,0,0-2.05-1,12.52,12.52,0,0,1-3-1.51,5.13,5.13,0,0,1-1.58-1.76,4.65,4.65,0,0,1-.49-2.13A4.87,4.87,0,0,1,29.9,21a5.11,5.11,0,0,1,2.18-1.91,8.22,8.22,0,0,1,3.69-.74,15.92,15.92,0,0,1,2.58.19,6.66,6.66,0,0,1,1.8.48.31.31,0,0,1,.2.19,1,1,0,0,1,0,.25v3.39a.21.21,0,0,1-.1.2A.37.37,0,0,1,40,23.05Z"/></g></g></g></g></svg>