<svg id="Layer_1" data-name="Layer 1" xmlns="http://www.w3.org/2000/svg" viewBox="0 0 50 50"><defs><style>.cls-1{fill:#00749a;}.cls-2{fill:#464342;}</style></defs><path class="cls-1" d="M22.51,32.68H19.93V33c.81,0,.94.17.94,1.19V36c0,1-.13,1.2-.94,1.2a2.6,2.6,0,0,1-1.61-1.05l-.66-.72A1.44,1.44,0,0,0,19,34.08c0-.79-.68-1.4-2-1.4H14.55V33c.81,0,.94.17.94,1.19V36c0,1-.13,1.2-.94,1.2v.28h2.87V37.2c-.81,0-.94-.18-.94-1.2v-.52h.24l1.6,2h4.19c2.06,0,2.95-1.1,2.95-2.41S24.57,32.68,22.51,32.68Zm-6,2.35V33.12h.59a1,1,0,0,1,0,1.91Zm6.07,2h-.1c-.52,0-.59-.13-.59-.79V33.12h.69c1.5,0,1.77,1.09,1.77,1.94S24.05,37,22.55,37Z"/><path class="cls-1" d="M6.53,35.56l1-2.93c.29-.85.16-1.1-.77-1.1v-.28H9.47v.28c-.91,0-1.12.22-1.48,1.27L6.35,37.72H6.16l-1.47-4.5L3.2,37.72H3L1.41,32.8c-.34-1-.58-1.27-1.41-1.27v-.28H3.2v.28c-.85,0-1.08.2-.78,1.1l1,2.93,1.46-4.31h.27Z"/><path class="cls-1" d="M11.43,37.66a2.6,2.6,0,1,1,0-5.16,2.6,2.6,0,1,1,0,5.16Zm0-4.72a1.9,1.9,0,0,0-1.79,2.13,1.89,1.89,0,0,0,1.79,2.13,1.89,1.89,0,0,0,1.8-2.13A1.9,1.9,0,0,0,11.43,32.94Z"/><path class="cls-2" d="M29,37.19v.29h-3.3v-.29c1,0,1.14-.24,1.14-1.68V33.2c0-1.44-.18-1.67-1.14-1.67v-.28h3c1.48,0,2.3.76,2.3,1.78s-.82,1.77-2.3,1.77h-.82v.71C27.88,37,28.05,37.19,29,37.19Zm-.32-5.43h-.82v2.51h.82A1.12,1.12,0,0,0,29.88,33,1.14,1.14,0,0,0,28.7,31.76Z"/><path class="cls-2" d="M40.89,36.12l-.07.26c-.13.48-.29.65-1.31.65h-.2c-.75,0-.88-.17-.88-1.19v-.67c1.12,0,1.21.11,1.21.85h.27V33.88h-.27c0,.75-.09.85-1.21.85V33.12h.79c1,0,1.18.17,1.31.64l.07.28h.23l-.1-1.36H36.5V33c.81,0,.94.17.94,1.19V36c0,.93-.11,1.17-.75,1.2a2.65,2.65,0,0,1-1.59-1.05l-.66-.72a1.44,1.44,0,0,0,1.37-1.35c0-.79-.68-1.4-1.94-1.4H31.33V33c.81,0,.94.17.94,1.19V36c0,1-.13,1.2-.94,1.2v.28H34.2V37.2c-.81,0-.94-.18-.94-1.2v-.52h.25l1.59,2H41l.09-1.36ZM33.26,35V33.12h.59a1,1,0,0,1,0,1.91Z"/><path class="cls-2" d="M43.81,37.66a2.16,2.16,0,0,1-1.29-.48.86.86,0,0,0-.23.48H42v-2h.29a1.6,1.6,0,0,0,1.63,1.51.74.74,0,0,0,.83-.69c0-.38-.33-.66-.92-.94L43,35.17a1.55,1.55,0,0,1-1-1.38,1.41,1.41,0,0,1,1.54-1.28,1.72,1.72,0,0,1,1.12.38.75.75,0,0,0,.19-.39h.28v1.7h-.31c-.1-.68-.47-1.24-1.23-1.24-.41,0-.78.23-.78.59s.3.57,1,.89l.79.39a1.51,1.51,0,0,1,1,1.29A1.62,1.62,0,0,1,43.81,37.66Z"/><path class="cls-2" d="M48.24,37.66A2.16,2.16,0,0,1,47,37.18a1,1,0,0,0-.23.48h-.28v-2h.29a1.6,1.6,0,0,0,1.63,1.51.74.74,0,0,0,.83-.69c0-.38-.33-.66-.92-.94l-.82-.39a1.56,1.56,0,0,1-1-1.38A1.42,1.42,0,0,1,48,32.51a1.77,1.77,0,0,1,1.12.38.83.83,0,0,0,.18-.39h.28v1.7h-.3A1.26,1.26,0,0,0,48,33c-.4,0-.78.23-.78.59s.3.57,1,.89l.8.39a1.49,1.49,0,0,1,1,1.29A1.62,1.62,0,0,1,48.24,37.66Z"/><path class="cls-2" d="M15.65,17.53a9.31,9.31,0,0,0,5.24,8.37L16.46,13.75A9.15,9.15,0,0,0,15.65,17.53Z"/><path class="cls-2" d="M31.23,17.06a4.82,4.82,0,0,0-.77-2.56,4.39,4.39,0,0,1-.91-2.18,1.61,1.61,0,0,1,1.56-1.65h.12a9.3,9.3,0,0,0-14,1.75h.6c1,0,2.48-.11,2.48-.11a.38.38,0,0,1,.06.76s-.51.06-1.07.09l3.39,10.07,2-6.1-1.44-4c-.5,0-1-.09-1-.09a.38.38,0,0,1,.06-.76s1.53.11,2.45.11,2.48-.11,2.48-.11a.38.38,0,0,1,.06.76s-.51.06-1.07.09l3.36,10,.93-3.1A11.35,11.35,0,0,0,31.23,17.06Z"/><path class="cls-2" d="M25.11,18.34l-2.79,8.11a9.19,9.19,0,0,0,2.63.38A9.33,9.33,0,0,0,28,26.3a.54.54,0,0,1-.07-.13Z"/><path class="cls-2" d="M33.11,13.07a7.16,7.16,0,0,1,.06,1,8.78,8.78,0,0,1-.7,3.33l-2.84,8.21a9.3,9.3,0,0,0,4.62-8A9.18,9.18,0,0,0,33.11,13.07Z"/><path class="cls-2" d="M25,6.69A10.84,10.84,0,1,0,35.79,17.53,10.85,10.85,0,0,0,25,6.69Zm0,21.18A10.34,10.34,0,1,1,35.29,17.53,10.35,10.35,0,0,1,25,27.87Z"/></svg>