<svg xmlns="http://www.w3.org/2000/svg" viewBox="0 0 50 50"><defs><style>.cls-1{fill:#470137;}.cls-2{fill:#ff61f6;}</style></defs><g id="Layer_3" data-name="Layer 3"><g id="Layer_2" data-name="Layer 2"><g id="Surfaces"><g id="UI_UX_Surface" data-name="UI UX Surface"><g id="Outline_no_shadow" data-name="Outline no shadow"><rect class="cls-1" y="0.78" width="50" height="48.75" rx="8.85"/></g></g></g><g id="Outlined_Mnemonics_Logos" data-name="Outlined Mnemonics Logos"><g id="Xd"><path class="cls-2" d="M26.28,13.6,20.05,23.9l6.67,10.94a.31.31,0,0,1,0,.25c0,.08-.1,0-.23,0H21.76c-.34,0-.57,0-.71-.24-.45-.87-.89-1.74-1.34-2.6s-.92-1.73-1.42-2.63-1-1.8-1.5-2.72h0c-.45.9-.91,1.79-1.39,2.69L13.94,32.3c-.47.89-.95,1.76-1.44,2.64-.09.2-.25.22-.47.22H7.43c-.08,0-.14,0-.15-.06a.37.37,0,0,1,0-.23l6.48-10.63L7.5,13.57c-.07-.09-.08-.16,0-.22a.22.22,0,0,1,.2-.08H12.4a.63.63,0,0,1,.3.05.58.58,0,0,1,.2.18c.4.9.85,1.79,1.34,2.69s1,1.77,1.5,2.65,1,1.75,1.39,2.65h0c.45-.92.9-1.81,1.36-2.69s.93-1.75,1.41-2.63.94-1.76,1.39-2.63a.54.54,0,0,1,.13-.22.52.52,0,0,1,.27-.05h4.4a.19.19,0,0,1,.23.14.18.18,0,0,1-.07.19Z"/><path class="cls-2" d="M35.91,35.57a10.22,10.22,0,0,1-4.48-.94A7,7,0,0,1,28.3,31.8a9.06,9.06,0,0,1-1.14-4.75,8.67,8.67,0,0,1,1.14-4.39,8.36,8.36,0,0,1,3.32-3.22,10.76,10.76,0,0,1,5.26-1.21l.44,0,.64.05V11.69c0-.15.06-.23.2-.23h4.22a.18.18,0,0,1,.21.15V31.48c0,.38,0,.8,0,1.24s.06.85.08,1.21a.35.35,0,0,1-.2.34,16.7,16.7,0,0,1-3.39,1A17.38,17.38,0,0,1,35.91,35.57ZM38,31.41V22.26a2.63,2.63,0,0,0-.56-.1,5.17,5.17,0,0,0-.68,0,5.29,5.29,0,0,0-2.35.54,4.32,4.32,0,0,0-2.45,4.19A5.85,5.85,0,0,0,32.27,29a4.06,4.06,0,0,0,.94,1.48,3.54,3.54,0,0,0,1.41.83,5.35,5.35,0,0,0,1.73.27q.46,0,.87,0A3.72,3.72,0,0,0,38,31.41Z"/></g></g></g></g></svg>